<svg xmlns="http://www.w3.org/2000/svg" width="19" height="12" fill="none"><path fill="gray" d="M18.846 5.542C15.976 1.866 12.878 0 9.628 0 8.34 0 7.038.299 5.75.885a13.5 13.5 0 0 0-2.982 1.91C1.135 4.156.173 5.513.134 5.57a.76.76 0 0 0 .02.888C3.02 10.138 6.122 12 9.372 12c1.287 0 2.59-.299 3.878-.885a13.5 13.5 0 0 0 2.982-1.91c1.633-1.361 2.595-2.718 2.634-2.775a.76.76 0 0 0-.02-.888M15.33 8.094c-1.35 1.12-3.475 2.452-5.957 2.452-2.68 0-5.294-1.53-7.776-4.552.392-.48 1.11-1.284 2.071-2.084 1.35-1.119 3.475-2.452 5.957-2.452 2.68 0 5.294 1.53 7.776 4.552-.392.48-1.11 1.289-2.071 2.084"/><path fill="gray" d="M12.071 5.275c-.384 0-.698.327-.698.727 0 1.078-.841 1.955-1.877 1.955-1.035 0-1.877-.877-1.877-1.955s.842-1.955 1.877-1.955c.384 0 .698-.327.698-.727s-.314-.727-.698-.727c-1.807 0-3.273 1.53-3.273 3.409s1.466 3.409 3.273 3.409 3.273-1.53 3.273-3.409c0-.4-.314-.727-.698-.727"/></svg>