<svg xmlns="http://www.w3.org/2000/svg" width="79" height="30" fill="none" viewBox="0 0 79 30"><g clip-path="url(#a)"><path fill="#FF3435" d="M10.174 2.435H8.609c-2.261 0-4.522 1.478-4.522 5.913 0 4.26 2 5.565 4.522 5.565h1.478V2.435zM7.739 16.26 3.304 26.348H0l4.957-10.783c-2.348-1.217-3.914-3.304-3.914-7.304C1.043 2.696 4.522 0 8.696 0h4.26v26.348h-2.869V16.26z"/><path fill="#000" d="M68.174 17.044c0-5.827 2.26-9.566 6.608-9.566 1.653 0 2.61.435 3.392.957l-.435 2.695c-.783-.695-1.913-1.304-3.044-1.304-2.086 0-3.565 2.348-3.565 7.044 0 4.608 1.13 7.304 3.392 7.304 1.39 0 2.434-.522 3.13-1.13l.696 2.173c-.957.87-2.174 1.392-3.913 1.392-3.913 0-6.261-3.218-6.261-9.565m-8.435.086v9.218h-2.87V7.739h2.87v8.609l4.435-8.609h2.956l-4.608 8.783 5.304 9.826h-3.13zm-13.565-1.739h4.782c0-3.13-.521-5.478-2.174-5.478-1.739 0-2.347 2.174-2.608 5.478M49.39 26.61c-3.826 0-6.174-3.044-6.174-8.783 0-6 1.653-10.348 5.566-10.348 3.13 0 5.13 2.348 5.13 8.609v1.565h-7.74c0 4.174 1.218 6.435 3.48 6.435 1.651 0 2.956-.696 3.651-1.217L54 25.044c-1.218.956-2.783 1.565-4.609 1.565m-12.26-16.522h-3.218v.348c0 3.913-.174 9.652-1.74 13.565h4.957zM41.477 30H38.87v-3.652h-8V30h-2.61v-6h1.131c1.74-3.913 1.913-9.74 1.913-14.609V7.74H40V24h1.478zM26.696 7.74v18.608h-2.87V18h-4.26v8.348h-2.87V7.739h2.87v7.913h4.26V7.74z"/></g><defs><clipPath id="a"><path fill="#fff" d="M0 0h78.435v30H0z"/></clipPath></defs></svg>