<svg xmlns="http://www.w3.org/2000/svg" width="13" height="8" fill="none"><path fill="#000" d="m7.92.518-1.07 1.4.685-1.634C7.552.199 7.62.15 7.669.15c.017 0 .032.017.066.032l.1.049.1.049c.086.055.07.136-.016.238zM6.47 2.05l.3-2.35c.032-.166-.017-.283-.134-.283h-.333c-.117 0-.166.1-.134.283zm.417 2.55c.1.233.134.384.134.598v2.218a.164.164 0 0 1-.166.166h-.867c-.1 0-.165-.066-.165-.166v-.55h-4.62v.55a.164.164 0 0 1-.166.166H.166c-.1 0-.166-.066-.166-.166V5.2c0-.22.032-.385.134-.6l1.083-2.266c.117-.268.45-.482.75-.482h3.068c.3 0 .635.218.769.482zm-5.92-.098h5.066L5.3 2.937c-.15-.3-.282-.367-.599-.367H2.184c-.234.031-.35.116-.465.367L.967 4.503zm.7 1.132a.54.54 0 0 0-.55-.533c-.3 0-.533.233-.533.533s.234.55.533.55.55-.248.55-.55m4.768 0c0-.3-.251-.533-.55-.533s-.534.233-.534.533.234.55.533.55c.3.002.55-.248.55-.55zm-.332-3.569L5.42.433C5.387.348 5.334.299 5.285.299h-.049c-.017 0-.017.017-.031.017l-.1.049L5.02.43c-.085.05-.066.134.017.234zm6.849 3.201-.501 1.885-.066.25c-.017.085-.117.134-.2.117l-.833-.219c-.085-.017-.133-.116-.117-.2l.066-.25.085-.268-4.119-1.1v-.316c0-.134-.017-.283-.049-.417a.54.54 0 0 0 .483-.401c.085-.283-.1-.582-.385-.667a.6.6 0 0 0-.501.133l-.385-.8c.017-.017.032-.05.05-.066l1.633-1.902c.15-.182.401-.282.635-.3.085 0 .15 0 .219.018l2.918.75c.3.085.568.384.617.667l.465 2.468c.053.251.038.42-.015.618m-.716-.864-.317-1.7c-.065-.331-.182-.433-.482-.518L9.12 1.55c-.117-.032-.2-.032-.283-.032-.134.017-.25.1-.384.25L7.318 3.085l4.918 1.319zm-.317.533c-.031-.017-.065-.017-.1-.017h-.1a.49.49 0 0 0-.45.402.54.54 0 0 0 .368.667c.283.085.582-.1.667-.385a.55.55 0 0 0-.385-.667"/></svg>