<svg xmlns="http://www.w3.org/2000/svg" width="20" height="20" fill="none" viewBox="0 0 20 20"><path fill="#959EA8" d="M17.071 2.929A9.94 9.94 0 0 0 10 0a9.94 9.94 0 0 0-7.071 2.929A9.94 9.94 0 0 0 0 10a9.94 9.94 0 0 0 2.929 7.071A9.94 9.94 0 0 0 10 20a9.94 9.94 0 0 0 7.071-2.929A9.94 9.94 0 0 0 20 10a9.94 9.94 0 0 0-2.929-7.071m-.829 13.313A8.77 8.77 0 0 1 10 18.828a8.77 8.77 0 0 1-6.242-2.586A8.77 8.77 0 0 1 1.172 10a8.77 8.77 0 0 1 2.586-6.242A8.77 8.77 0 0 1 10 1.172a8.77 8.77 0 0 1 6.242 2.586A8.77 8.77 0 0 1 18.828 10a8.77 8.77 0 0 1-2.586 6.242"/><path fill="#959EA8" d="M10 9.414a5.11 5.11 0 0 0-5.106 5.106v.586h10.212v-.586A5.11 5.11 0 0 0 10 9.414m-3.89 4.52A3.94 3.94 0 0 1 10 10.586a3.94 3.94 0 0 1 3.89 3.348zm.687-6.2a1.96 1.96 0 0 0 1.959-1.958 1.96 1.96 0 0 0-1.959-1.959 1.96 1.96 0 0 0-1.959 1.959 1.96 1.96 0 0 0 1.959 1.958m0-2.745a.788.788 0 0 1 0 1.573.788.788 0 0 1 0-1.573m6.406-1.172a1.96 1.96 0 0 0-1.959 1.959 1.96 1.96 0 0 0 1.959 1.958 1.96 1.96 0 0 0 1.958-1.958 1.96 1.96 0 0 0-1.958-1.959m0 2.745a.788.788 0 0 1 0-1.573.788.788 0 0 1 0 1.573"/></svg>