<svg xmlns="http://www.w3.org/2000/svg" width="14" height="11" fill="none"><path fill="#2C3D52" d="M13.195 2.047c-.48.204-.996.342-1.538.403a2.6 2.6 0 0 0 1.177-1.417 5.6 5.6 0 0 1-1.701.622 2.73 2.73 0 0 0-1.955-.81C7.699.846 6.5 1.995 6.5 3.41q0 .301.07.584c-2.226-.107-4.2-1.128-5.52-2.679-.23.378-.362.819-.362 1.289 0 .89.473 1.674 1.19 2.133a2.8 2.8 0 0 1-1.212-.322v.032c0 1.242.923 2.278 2.148 2.514a2.8 2.8 0 0 1-1.21.042c.341 1.02 1.33 1.76 2.501 1.78A5.53 5.53 0 0 1 .78 9.879q-.324 0-.638-.035a7.8 7.8 0 0 0 4.104 1.153c4.927 0 7.62-3.906 7.62-7.293l-.01-.332a5.2 5.2 0 0 0 1.34-1.324z"/></svg>