<svg width="30" height="30" fill="none" xmlns="http://www.w3.org/2000/svg"><g clip-path="url(#clip0)" fill-rule="evenodd" clip-rule="evenodd"><path d="M15 0a15 15 0 110 30 15 15 0 010-30z" fill="#FB0D1C"/><path d="M15.58.012c1.425.053 2.836.31 4.19.762l-6.568 5.679L9.56 5.209 15.57.017l.01-.005zm-1.782 29.94a14.913 14.913 0 01-4.044-.895l6.978-6.028 3.643 1.244-6.574 5.68-.003-.001z" fill="#CD0714"/><path d="M9.559 17.19l10.81 3.693v3.383L9.56 20.573v-3.384zm0-11.982l10.81 3.694v3.383L9.56 8.592V5.208z" fill="#fff"/><path d="M9.559 17.19l7.13-6.163 3.642 1.244-7.132 6.162-3.64-1.244z" fill="#C9C9C9"/></g><defs><clipPath id="clip0"><path fill="#fff" d="M0 0h30v30H0z"/></clipPath></defs></svg>