<svg xmlns="http://www.w3.org/2000/svg" width="181" height="37" fill="none"><path fill="#fff" d="M52.444.699H53v35.694h-.563V.695z"/><g clip-path="url(#a)"><path fill="#fff" d="M73.69 9.646a5.95 5.95 0 0 1 4.057-1.636h3.72v21.325H79.17v-8.127h-1.895a9251 9251 0 0 0-3.623 8.125H71c1.33-2.903 2.666-5.802 3.983-8.71a5.3 5.3 0 0 1-1.837-1.494 5.35 5.35 0 0 1-1.01-2.146c-.559-2.49-.287-5.42 1.553-7.329v-.008zm2.383.853c-1.17.72-1.59 2.164-1.698 3.462-.111 1.505.034 3.196 1.087 4.369.965.964 2.435.944 3.703.925V9.948c-1.035 0-2.184-.062-3.092.551m66.711-2.489h7.43v20.157h1.455v4.75h-1.165a702 702 0 0 1-.207-3.577h-9.087c-.064 1.191-.137 2.38-.202 3.571h-1.164v-4.715c.955.122 1.309-.92 1.597-1.638.732-2.216.869-4.57 1.035-6.881.207-3.886.246-7.776.305-11.666zm.776 14.824c-.225 1.82-.427 3.737-1.418 5.33h6.597V9.252h-4.604c-.106 4.533-.168 9.07-.575 13.59v-.007zm9.62-7.261c1.351-1.56 3.914-2.148 5.645-.897 2.112 1.708 1.592 5.552-.888 6.675.709.344 1.473.7 1.916 1.39 1.263 1.82.856 4.62-.836 6.038-1.859 1.443-4.742 1.027-6.212-.796.161-.382.316-.765.474-1.144 1.001 1.26 2.79 2.01 4.33 1.3 1.677-.934 1.956-3.396 1.035-4.941-.836-1.287-2.534-1.246-3.882-1.22v-1.16c1.05 0 2.249.07 3.092-.686 1.012-.926 1.186-2.554.65-3.776-.453-.989-1.664-1.272-2.645-1.054-.981.12-1.7.895-2.329 1.59q-.177-.664-.357-1.322zm11.507-.837c1.369-1.15 3.623-.864 4.62.631 1.315 1.938 1.294 4.421 1.146 6.684h-6.77c.116 2 .14 4.364 1.711 5.836 1.496 1.087 3.623.322 4.658-1.074.132.398.275.795.42 1.193-1.584 2.026-5.068 2.278-6.662.143-1.46-2.145-1.532-4.889-1.447-7.396.158-2.15.621-4.553 2.329-6.02zm.696.98c-1.384 1.337-1.532 3.415-1.679 5.225h5.453c.026-1.69.067-3.568-.976-4.996a1.82 1.82 0 0 0-2.131-.668 1.8 1.8 0 0 0-.667.434zm-80.946-1.402h2.314v6.37h3.44v-6.372h2.288v15.02h-2.293V22.64h-3.432v6.696h-2.33V14.317zm11.82 0c2.33-.023 4.636 0 6.955 0v13.133h1.193v4.876h-2.071V29.33h-6.418v2.988H93.83v-4.873h.937c1.591-4.161 1.483-8.728 1.5-13.123zm2.07 1.875c-.04 3.774-.095 7.651-1.384 11.243h3.97V16.184l-2.585.005zm9.468-1.113c1.506-1.519 4.387-1.261 5.51.596 1.188 2.005 1.131 4.436 1.131 6.694h-6.229c.057 1.56.111 3.302 1.172 4.543 1.276 1.201 3.318.52 4.586-.364.166.616.342 1.23.492 1.851a6.54 6.54 0 0 1-4.511 1.124c-1.869-.26-3.23-1.896-3.709-3.654-.613-2.24-.517-4.619-.15-6.894.259-1.402.725-2.84 1.719-3.9zm1.434 1.43c-.857 1.127-.88 2.622-1.007 3.974h3.841c-.067-1.3 0-2.723-.73-3.864-.458-.718-1.594-.835-2.104-.11m7.599-2.2h2.314c.036 2.312-.063 4.627.054 6.939 1.128-2.34 2.36-4.634 3.559-6.944h2.329c-1.23 2.375-2.493 4.73-3.714 7.11 1.436 2.627 2.826 5.274 4.242 7.911h-2.521l-3.934-7.46v7.465h-2.329v-15.02zm12.997 0a5.4 5.4 0 0 1 4.183.58q-.174 1.104-.326 2.208c-.976-.78-2.418-1.45-3.595-.707-1.377 1.077-1.605 2.993-1.706 4.626-.021 1.938-.057 4.078 1.074 5.748.997 1.36 3.106.957 4.19-.078q.259.878.536 1.755c-1.496 1.207-3.732 1.56-5.435.582-1.615-.964-2.378-2.86-2.642-4.644-.321-2.203-.277-4.507.408-6.642.518-1.56 1.685-3.011 3.313-3.428m43.266 0h1.397v6.635h5.112v-6.624h1.397v15.02H179.6v-7.213h-5.109v7.216h-1.403V14.327l.003-.02z"/></g><path fill="#fff" fill-rule="evenodd" d="M15 5a15 15 0 1 1 0 30 15 15 0 0 1 0-30" clip-rule="evenodd"/><path fill="#2C3D52" fill-rule="evenodd" d="M18.79 13.86v-1.124a.45.45 0 0 0-.45-.45h-6.85a.45.45 0 0 0-.45.45v1.125a.45.45 0 0 0 .45.45h4.262c.363 0 .314.28.25.432l-4.869 11.19q-.064.181-.062.373v1.125a.45.45 0 0 0 .45.45h6.85a.45.45 0 0 0 .45-.45v-1.125a.45.45 0 0 0-.45-.45h-4.264c-.363 0-.315-.28-.25-.433l4.833-11.106.037-.084a1.1 1.1 0 0 0 .062-.374v.002z" clip-rule="evenodd"/><defs><clipPath id="a"><path fill="#fff" d="M71 8h110v24.906H71z"/></clipPath></defs></svg>