<svg width="30" height="30" fill="none" xmlns="http://www.w3.org/2000/svg"><path d="M15 30c8.284 0 15-6.716 15-15 0-8.284-6.716-15-15-15C6.716 0 0 6.716 0 15c0 8.284 6.716 15 15 15z" fill="#36AEE3"/><g clip-path="url(#clip0)"><path d="M22.121 8.075c.29-.126.846-.128.879.275-.036.476-.16.94-.235 1.41-.88 4.305-1.81 8.6-2.789 12.884-.12.17-.269.352-.5.356-.284-.035-.507-.223-.733-.371-1.396-.932-2.803-1.85-4.195-2.786-.733.663-1.482 1.3-2.198 1.977-.196.18-.405.46-.714.395-.24-.128-.297-.414-.399-.64-.548-1.53-1.02-3.095-1.51-4.65-1.21-.453-2.429-.887-3.643-1.325-.381-.144-.832-.256-1.043-.633-.134-.24.089-.498.299-.605.542-.277 1.135-.44 1.702-.66 5.033-1.859 10.054-3.748 15.079-5.627zm-2.93 2.886a3751.248 3751.248 0 01-8.636 5.488l-.026.045c.418 1.352.826 2.707 1.255 4.054.114-.895.241-1.79.368-2.683 2.544-2.415 5.086-4.832 7.624-7.252-.204.1-.4.216-.585.348z" fill="#fff"/></g><defs><clipPath id="clip0"><path fill="#fff" transform="translate(5 8)" d="M0 0h18v15H0z"/></clipPath></defs></svg>