<svg width="24" height="24" fill="none" xmlns="http://www.w3.org/2000/svg"><path d="M12 0C5.383 0 0 5.383 0 12s5.383 12 12 12 12-5.383 12-12S18.617 0 12 0zm0 23C5.935 23 1 18.065 1 12S5.935 1 12 1s11 4.935 11 11-4.935 11-11 11z" fill="#959EA8"/><path d="M18.438 14.021a.498.498 0 00-.602.37 5.977 5.977 0 01-5.838 4.61 5.975 5.975 0 01-5.839-4.616.5.5 0 10-.974.23A6.972 6.972 0 0011.998 20a6.972 6.972 0 006.81-5.377.5.5 0 00-.37-.602zM8 10a1 1 0 100-2 1 1 0 000 2zm8 0a1 1 0 100-2 1 1 0 000 2z" fill="#959EA8"/></svg>