<svg xmlns="http://www.w3.org/2000/svg" width="31" height="31" fill="none"><path fill="#2C3D52" d="M23.845 8.346a1.194 1.194 0 0 1-1.193-1.192V4.769c0-.657.536-1.192 1.193-1.192h2.384c.657 0 1.193.535 1.193 1.192v2.385c0 .657-.536 1.192-1.193 1.192zm-8.347 2.609c-.865 0-1.664.254-2.352.671a2.3 2.3 0 0 1 .672-.11 2.304 2.304 0 1 1-2.304 2.305c0-.237.046-.46.112-.673a4.5 4.5 0 0 0-.673 2.352 4.544 4.544 0 0 0 4.546 4.546 4.545 4.545 0 1 0 0-9.091z"/><path fill="#2C3D52" d="M15.5 8.346a7.154 7.154 0 1 1-.001 14.308 7.154 7.154 0 0 1 0-14.308zm0-2.385c-5.26 0-9.54 4.28-9.54 9.539 0 5.26 4.28 9.538 9.54 9.538s9.538-4.279 9.538-9.538-4.28-9.539-9.539-9.539z"/><path fill="#2C3D52" d="M25.188 0H5.813A5.81 5.81 0 0 0 0 5.813v19.375A5.81 5.81 0 0 0 5.813 31h19.375A5.81 5.81 0 0 0 31 25.187V5.813A5.81 5.81 0 0 0 25.187 0zm3.427 10.73h-7.794a7.12 7.12 0 0 1 1.833 4.77 7.155 7.155 0 0 1-14.308 0c0-1.835.696-3.503 1.833-4.77H2.385V5.813a3.43 3.43 0 0 1 3.428-3.427h19.375a3.43 3.43 0 0 1 3.427 3.428v4.918z"/></svg>