<svg xmlns="http://www.w3.org/2000/svg" width="17" height="17" fill="none"><path fill="#2C3D52" d="M12.925 11.246c-.556-.548-1.25-.548-1.801 0q-.633.624-1.256 1.26c-.113.116-.209.14-.347.063-.272-.149-.562-.269-.824-.432-1.22-.767-2.243-1.754-3.148-2.865-.45-.552-.85-1.143-1.129-1.808-.056-.134-.046-.223.064-.332.42-.407.831-.824 1.245-1.242.577-.58.577-1.26-.003-1.843-.33-.332-.658-.658-.987-.99-.34-.34-.676-.683-1.02-1.02-.555-.54-1.248-.54-1.8.004-.424.418-.831.846-1.263 1.256-.4.379-.601.842-.644 1.383-.067.881.149 1.712.453 2.522.623 1.677 1.57 3.167 2.72 4.532a16.8 16.8 0 0 0 5.576 4.362c.976.474 1.988.838 3.088.898.757.043 1.415-.148 1.942-.739.361-.403.768-.771 1.15-1.157.566-.573.57-1.266.007-1.832a535 535 0 0 0-2.023-2.02m-.676-2.82 1.305-.222a5.83 5.83 0 0 0-1.63-3.149 5.8 5.8 0 0 0-3.326-1.659L8.414 4.71c.98.138 1.872.58 2.575 1.284a4.5 4.5 0 0 1 1.26 2.433zm2.041-5.674A9.63 9.63 0 0 0 8.772 0l-.184 1.312a8.35 8.35 0 0 1 4.768 2.378 8.34 8.34 0 0 1 2.339 4.51L17 7.977a9.7 9.7 0 0 0-2.71-5.225"/></svg>