<svg width="16" height="14" viewBox="0 0 16 14" fill="none" xmlns="http://www.w3.org/2000/svg">
<path d="M15.3537 6.00781H0.646312C0.289375 6.00781 0 6.3624 0 6.79987C0 7.23734 0.289375 7.59193 0.646312 7.59193H15.3537C15.7107 7.59193 16 7.23734 16 6.79987C16 6.36244 15.7107 6.00781 15.3537 6.00781Z" fill="#2C3D52"/>
<path d="M15.3537 0H0.646312C0.289375 0 0 0.35463 0 0.792059C0 1.22949 0.289375 1.58412 0.646312 1.58412H15.3537C15.7107 1.58412 16 1.22949 16 0.792059C16 0.35463 15.7107 0 15.3537 0Z" fill="#2C3D52"/>
<path d="M15.3537 12.0156H0.646312C0.289375 12.0156 0 12.3702 0 12.8077C0 13.2452 0.289375 13.5997 0.646312 13.5997H15.3537C15.7107 13.5997 16 13.2452 16 12.8077C16 12.3702 15.7107 12.0156 15.3537 12.0156Z" fill="#2C3D52"/>
</svg>
