<svg width="14" height="14" fill="none" xmlns="http://www.w3.org/2000/svg"><path d="M12.921 8.795a.349.349 0 00-.348.348v3.096c0 .578-.469 1.046-1.046 1.046H1.743A1.047 1.047 0 01.697 12.24V3.153a1.048 1.048 0 011.046-1.046H4.84a.349.349 0 100-.697H1.743A1.745 1.745 0 000 3.153v9.087a1.745 1.745 0 001.743 1.743h9.784a1.745 1.745 0 001.743-1.744V9.143a.349.349 0 00-.349-.348z" fill="#2C3D52"/><path d="M13.13.513a1.57 1.57 0 00-2.22 0l-6.22 6.22a.349.349 0 00-.09.154L3.782 9.84a.348.348 0 00.43.43l2.953-.819a.349.349 0 00.153-.09l6.22-6.22a1.57 1.57 0 000-2.22L13.13.514zM5.45 6.96l5.09-5.091 1.642 1.642-5.09 5.09L5.448 6.96zm-.328.658L6.433 8.93l-1.814.503.503-1.815zm7.923-4.97l-.37.37-1.641-1.642.37-.37a.872.872 0 011.232 0l.41.409c.34.34.34.892 0 1.233z" fill="#2C3D52"/></svg>