<svg xmlns="http://www.w3.org/2000/svg" width="13" height="13" fill="none"><g clip-path="url(#a)"><path fill="#2C3D52" d="M2.787 5.496a1.2 1.2 0 0 0-.2-.541l9.51-3.176L11.6.284a.415.415 0 0 0-.525-.263L.728 3.476A.415.415 0 0 0 .465 4l.245.733a1.238 1.238 0 0 0 .24 1.994v5.858c0 .23.186.415.415.415h10.908a.415.415 0 0 0 .414-.415V5.496zm6.062-4.244 1.26-.42-.304 1.225-1.259.42zM5.738 2.291l1.26-.42-.304 1.224-1.26.42zM1.554 6.276a.633.633 0 1 1 .002-1.266.633.633 0 0 1-.002 1.266M2.627 3.33l1.26-.42-.304 1.224-1.26.42zm1.237 3.567H2.536l.676-1.066h1.327zM6.49 5.83h1.33l-.675 1.066H5.816zm-.325 5.15V8.17l2.238 1.405zm4.258-4.084H9.096l.675-1.066H11.1l-.675 1.066z"/></g><defs><clipPath id="a"><path fill="#fff" d="M0 0h13v13H0z"/></clipPath></defs></svg>