<svg xmlns="http://www.w3.org/2000/svg" width="216" height="46" fill="none" viewBox="0 0 216 46"><path d="M204.967.426C210.551.426 216 4.812 216 10.748v24.504C216 41.188 210.551 46 204.967 46H0V0z"/><path fill="#fff" d="M60.47 23.464c0-.142-.125-.26-.279-.265-5.48-.192-8.814-.839-11.15-3.005-2.34-2.168-3.035-5.263-3.242-10.353-.005-.142-.132-.258-.286-.258h-.639c-.154 0-.28.116-.285.258-.207 5.09-.905 8.185-3.242 10.353-2.336 2.166-5.67 2.813-11.151 3.005-.154.005-.278.122-.278.265v.595c0 .142.124.26.278.264 5.48.192 8.815.839 11.151 3.005 2.334 2.164 3.032 5.25 3.242 10.322.005.142.132.257.285.257h.642c.153 0 .28-.115.285-.257.21-5.072.907-8.158 3.241-10.322 2.337-2.166 5.671-2.81 11.152-3.005.154-.004.278-.122.278-.264v-.595z"/><mask id="a" width="136" height="32" x="47" y="9" maskUnits="userSpaceOnUse" style="mask-type:luminance"><path fill="#fff" d="M182.263 9.583H47.74V40.89h134.523z"/></mask><g fill="#fff" mask="url(#a)"><path d="M149.437 34.365h4.564v-8.792h10.968v8.792h4.563V13.567h-4.563v8.398h-10.968v-8.398h-4.564zm-3.063-9.383c0-7.446-3.952-12.204-10.321-12.204-6.37 0-11.07 5.183-11.07 11.186s4.428 11.186 11.514 11.186c3.438 0 6.301-1.05 8.923-3.05l-2.044-2.788c-1.908 1.28-4.154 2.23-6.607 2.23-3.746 0-6.505-2.263-7.221-5.807h16.826zm-16.792-2.655c.648-3.445 3.304-5.937 6.505-5.937s5.347 2.33 5.857 5.937H129.58zm-16.109 12.825c5.96 0 9.501-2.724 9.501-6.397 0-2.264-1.329-4.264-4.598-4.921l-.204-.033v-.196l.204-.033c3.1-.591 4.392-2.592 4.392-4.725 0-3.215-3.031-6.07-8.65-6.07-3.78 0-7.459 1.378-10.559 3.478l1.839 2.986c2.146-1.41 5.45-2.853 8.413-2.853s4.565 1.443 4.565 3.019c0 1.476-1.33 2.624-4.531 2.787l-5.177.23v2.853l5.177.23c3.339.162 4.531 1.41 4.531 2.787 0 1.576-1.602 3.215-5.244 3.215-3.339 0-6.198-1.377-8.583-2.92v4.168c1.362.852 4.565 2.395 8.924 2.395m-13.694-5.249V13.567H83.056l-1.26 10.957c-.476 4.396-1.909 5.379-4.359 5.379h-.204v8.856h4.565v-4.396h16.178v4.396h4.565v-8.856zm-4.565.853H83.022v-.197c1.464-.524 2.725-1.41 3.1-4.854l.954-8.528h8.14v13.58z"/></g></svg>