<svg width="14" height="14" fill="none" xmlns="http://www.w3.org/2000/svg"><path d="M8.028 6.315a.686.686 0 10.001 1.371.686.686 0 00-.001-1.37zm.453-2.075v1.234a1.6 1.6 0 01.857.623l1.175-.381A2.806 2.806 0 008.48 4.239zm2.313 2.338l-1.175.382V7c0 .363-.122.699-.328.967l.725.999a2.788 2.788 0 00.778-2.388z" fill="#2C3D52"/><path d="M8.028 1.028H2.51a.454.454 0 000 .907h2.358A6.016 6.016 0 003.537 3.07H.454a.454.454 0 000 .907H2.88A5.935 5.935 0 002.056 7a5.94 5.94 0 001.098 3.447H1.867a.454.454 0 100 .908h2.08c.282.265.59.503.92.71H.5a.454.454 0 000 .907h7.528A5.979 5.979 0 0014 7a5.979 5.979 0 00-5.972-5.972zm2.204 8.949l-.026.02a3.684 3.684 0 01-2.178.708 3.684 3.684 0 01-2.178-.708l-.025-.02A3.702 3.702 0 014.323 7a3.71 3.71 0 013.705-3.705A3.71 3.71 0 0111.733 7a3.702 3.702 0 01-1.502 2.977z" fill="#2C3D52"/><path d="M5.543 5.716l1.175.381a1.6 1.6 0 01.856-.623V4.24a2.806 2.806 0 00-2.031 1.477zm3.015 2.785a1.584 1.584 0 01-1.06 0l-.726.999c.378.19.805.298 1.256.298A2.78 2.78 0 009.283 9.5l-.725-1zM6.436 7l.001-.04-1.175-.382a2.789 2.789 0 00.777 2.387l.726-.998A1.584 1.584 0 016.436 7z" fill="#2C3D52"/></svg>