<svg xmlns="http://www.w3.org/2000/svg" width="30" height="30" fill="none"><g fill-rule="evenodd" clip-path="url(#a)" clip-rule="evenodd"><path fill="#FB0D1C" d="M15 0a15 15 0 1 1 0 30 15 15 0 0 1 0-30"/><path fill="#CD0714" d="M15.58.012c1.425.053 2.836.31 4.19.762l-6.568 5.679L9.56 5.209 15.57.017zm-1.782 29.94a15 15 0 0 1-4.044-.895l6.978-6.028 3.643 1.244-6.574 5.68z"/><path fill="#fff" d="m9.559 17.19 10.81 3.693v3.383L9.56 20.573v-3.384zm0-11.982 10.81 3.694v3.383L9.56 8.592V5.208z"/><path fill="#C9C9C9" d="m9.559 17.19 7.13-6.163 3.642 1.244-7.132 6.162-3.64-1.244z"/></g><defs><clipPath id="a"><path fill="#fff" d="M0 0h30v30H0z"/></clipPath></defs></svg>