<svg xmlns="http://www.w3.org/2000/svg" width="24" height="24" fill="none"><path fill="#959EA8" d="M12 0C5.383 0 0 5.383 0 12s5.383 12 12 12 12-5.383 12-12S18.617 0 12 0m0 23C5.935 23 1 18.065 1 12S5.935 1 12 1s11 4.935 11 11-4.935 11-11 11"/><path fill="#959EA8" d="M18.438 14.021a.5.5 0 0 0-.602.37 5.98 5.98 0 0 1-5.838 4.61 5.975 5.975 0 0 1-5.839-4.616.5.5 0 1 0-.974.23A6.97 6.97 0 0 0 11.998 20a6.97 6.97 0 0 0 6.81-5.377.5.5 0 0 0-.37-.602M8 10a1 1 0 1 0 0-2 1 1 0 0 0 0 2m8 0a1 1 0 1 0 0-2 1 1 0 0 0 0 2"/></svg>