<svg width="30" height="30" fill="none" xmlns="http://www.w3.org/2000/svg"><path fill-rule="evenodd" clip-rule="evenodd" d="M15 0a15 15 0 100 30 15 15 0 000-30zm3.82 22.432a.452.452 0 01-.45.45h-6.85a.452.452 0 01-.45-.45v-1.125a1.057 1.057 0 01.062-.374L16 9.743c.065-.152.114-.432-.25-.432h-4.262a.452.452 0 01-.45-.45V7.736a.452.452 0 01.45-.45h6.85a.451.451 0 01.45.45V8.86c.002.127-.02.254-.062.374l-.038.083-4.833 11.107c-.067.152-.114.433.25.433h4.264a.452.452 0 01.45.45v1.124z" fill="#2C3D52"/></svg>