<svg width="13" height="13" fill="none" xmlns="http://www.w3.org/2000/svg"><g clip-path="url(#clip0)"><path d="M2.787 5.496a1.234 1.234 0 00-.2-.541l9.51-3.176L11.6.284a.415.415 0 00-.525-.263L.728 3.476A.415.415 0 00.465 4l.245.733a1.238 1.238 0 00.24 1.994v5.858c0 .23.186.415.415.415h10.908a.415.415 0 00.414-.415V5.496h-9.9zm6.062-4.244l1.26-.42-.304 1.225-1.259.42.303-1.225zM5.738 2.291l1.26-.42-.304 1.224-1.26.42.304-1.224zM1.554 6.276a.633.633 0 11.002-1.266.633.633 0 01-.002 1.266zM2.627 3.33l1.26-.42-.304 1.224-1.26.42.304-1.224zm1.237 3.567H2.536l.676-1.066h1.327l-.675 1.066zM6.49 5.83h1.33l-.675 1.066H5.816l.675-1.066zm-.325 5.15V8.17l2.238 1.405-2.238 1.406zm4.258-4.084H9.096l.675-1.066H11.1l-.675 1.066z" fill="#2C3D52"/></g><defs><clipPath id="clip0"><path fill="#fff" d="M0 0h13v13H0z"/></clipPath></defs></svg>