<svg width="12" height="13" fill="none" xmlns="http://www.w3.org/2000/svg"><g clip-path="url(#clip0)"><path d="M11.983 5.065a.335.335 0 00-.268-.226l-3.744-.532L6.287.92a.332.332 0 00-.596.002L4.028 4.32l-3.743.557a.335.335 0 00-.269.226.329.329 0 00.086.34L2.82 8.075l-.628 3.73a.328.328 0 00.133.324.33.33 0 00.35.025l3.342-1.771 3.352 1.751a.334.334 0 00.475-.372l-.648-3.707 2.7-2.647a.326.326 0 00.088-.343zM8.61 7.703A.329.329 0 008.516 8l.564 3.234-2.911-1.52a.337.337 0 00-.31 0L2.956 11.25 3.5 8.01a.332.332 0 00-.096-.293L1.051 5.432l3.248-.482a.33.33 0 00.249-.183L5.99 1.82l1.464 2.94c.05.099.143.165.251.182l3.252.463-2.348 2.298z" fill="#fff"/></g><defs><clipPath id="clip0"><path fill="#fff" transform="translate(0 .464)" d="M0 0h12v12H0z"/></clipPath></defs></svg>