<svg xmlns="http://www.w3.org/2000/svg" width="5" height="8" fill="none" viewBox="0 0 5 8"><path fill="#48484C" d="M2.206 7.573a.38.38 0 0 0 .375-.385v-.685h.117c.803 0 1.454-.67 1.454-1.494 0-.826-.65-1.495-1.454-1.495h-.984a.715.715 0 0 1-.704-.724c0-.397.314-.724.704-.724h1.734a.38.38 0 0 0 .375-.385.38.38 0 0 0-.375-.386h-.867V.622a.38.38 0 0 0-.375-.385.38.38 0 0 0-.375.385v.673h-.117C.911 1.295.26 1.965.26 2.79s.651 1.495 1.454 1.495h.984c.387 0 .705.323.705.724a.715.715 0 0 1-.705.723H.93a.38.38 0 0 0-.374.386c0 .214.166.385.374.385h.901v.685c0 .21.167.385.375.385"/></svg>