<svg xmlns="http://www.w3.org/2000/svg" width="12" height="12" fill="none"><path fill="#48484C" d="M9.563 4.077q-.062 0-.123.004A3.34 3.34 0 0 0 6.118.972a3.326 3.326 0 0 0-3.23 2.517A2.14 2.14 0 0 0 0 5.492 2.14 2.14 0 0 0 2.14 7.63h7.424c.98 0 1.777-.797 1.777-1.776 0-.98-.797-1.777-1.777-1.777zm0 3.2H2.138A1.787 1.787 0 0 1 .354 5.492a1.786 1.786 0 0 1 2.583-1.596.176.176 0 0 0 .254-.126 2.97 2.97 0 0 1 2.927-2.443 2.98 2.98 0 0 1 2.974 2.955.177.177 0 0 0 .21.173 1.424 1.424 0 0 1 1.684 1.398c0 .785-.639 1.423-1.423 1.423zM3.606 8.404a.177.177 0 0 0-.226.107l-.404 1.12a.177.177 0 1 0 .334.12l.403-1.12a.177.177 0 0 0-.107-.227m.651 2.133a.177.177 0 0 0-.226.106l-.404 1.12a.177.177 0 1 0 .333.12l.404-1.12a.177.177 0 0 0-.107-.226M5.89 8.404a.177.177 0 0 0-.227.107l-.404 1.12a.177.177 0 1 0 .333.12l.404-1.12a.177.177 0 0 0-.107-.227zm.65 2.133a.177.177 0 0 0-.226.106l-.404 1.12a.177.177 0 1 0 .333.12l.404-1.12a.177.177 0 0 0-.107-.226m1.632-2.133a.177.177 0 0 0-.227.107l-.403 1.12a.177.177 0 1 0 .333.12l.404-1.12a.177.177 0 0 0-.107-.227"/></svg>