<svg xmlns="http://www.w3.org/2000/svg" width="17" height="17" fill="none"><g fill="#2C3D52" clip-path="url(#a)"><path d="M14.663 6.191c-3.414-3.414-8.969-3.414-12.383 0L0 8.471l2.337 2.337a8.73 8.73 0 0 0 6.191 2.561 8.73 8.73 0 0 0 6.192-2.56L17 8.528zm-.35 4.211c-3.19 3.19-8.38 3.19-11.57 0l-1.93-1.93 1.873-1.875c3.19-3.19 8.38-3.19 11.571 0l1.93 1.931-1.873 1.874z"/><path d="M8.204 6.194c-1.108 0-2.01.902-2.01 2.01a.287.287 0 0 0 .575 0c0-.792.644-1.436 1.435-1.436a.287.287 0 0 0 0-.574"/><path d="M8.492 4.758a3.737 3.737 0 0 0-3.733 3.733 3.737 3.737 0 0 0 3.733 3.734 3.737 3.737 0 0 0 3.733-3.734 3.737 3.737 0 0 0-3.733-3.733m0 6.892a3.163 3.163 0 0 1-3.159-3.159 3.163 3.163 0 0 1 3.159-3.158A3.163 3.163 0 0 1 11.65 8.49a3.16 3.16 0 0 1-3.16 3.16z"/></g><defs><clipPath id="a"><path fill="#fff" d="M0 0h17v17H0z"/></clipPath></defs></svg>