<svg xmlns="http://www.w3.org/2000/svg" width="16" height="16" fill="none"><g fill="#90A9ED" clip-path="url(#a)"><path d="M13.8 5.827c-3.213-3.213-8.44-3.213-11.654 0L0 7.973l2.2 2.2a8.22 8.22 0 0 0 5.827 2.41c2.11 0 4.22-.804 5.827-2.41L16 8.025l-2.2-2.2zm-.328 3.963c-3.003 3.002-7.888 3.002-10.89 0L.764 7.973l1.764-1.764c3.003-3.002 7.888-3.002 10.89 0l1.818 1.817z"/><path d="M7.722 5.83A1.894 1.894 0 0 0 5.83 7.72a.27.27 0 0 0 .54 0c0-.745.607-1.351 1.352-1.351a.27.27 0 0 0 0-.54z"/><path d="M7.992 4.479A3.52 3.52 0 0 0 4.48 7.992a3.52 3.52 0 0 0 3.513 3.513 3.517 3.517 0 0 0 3.514-3.513 3.517 3.517 0 0 0-3.514-3.513zm0 6.486A2.976 2.976 0 0 1 5.02 7.992a2.976 2.976 0 0 1 2.973-2.973 2.976 2.976 0 0 1 2.973 2.973 2.976 2.976 0 0 1-2.973 2.973z"/></g><defs><clipPath id="a"><path fill="#fff" d="M0 0h16v16H0z"/></clipPath></defs></svg>