<svg width="20" height="11" fill="none" xmlns="http://www.w3.org/2000/svg"><path d="M19.092 10.026a1.174 1.174 0 00-.065-.115c-.333-.55-.969-1.227-1.908-2.028l-.02-.019-.01-.009-.01-.009h-.01c-.427-.373-.697-.624-.81-.753-.207-.244-.253-.492-.14-.743.08-.19.38-.59.9-1.202.273-.325.49-.584.65-.78C18.82 2.96 19.32 2.06 19.166 1.67l-.06-.092c-.04-.055-.143-.105-.309-.151a1.71 1.71 0 00-.64-.023l-2.878.018a.406.406 0 00-.2.005l-.13.027-.05.023-.04.028a.433.433 0 00-.11.096.618.618 0 00-.1.16c-.313.741-.669 1.43-1.069 2.066-.246.379-.473.708-.68.986a4.83 4.83 0 01-.519.615c-.14.131-.266.237-.38.316-.113.08-.2.114-.26.101a7.785 7.785 0 01-.17-.036.633.633 0 01-.224-.225.947.947 0 01-.115-.358 3.609 3.609 0 01-.035-.372 7.111 7.111 0 01.005-.44c.007-.19.01-.318.01-.386 0-.232.005-.485.015-.757l.025-.647c.007-.159.01-.327.01-.505 0-.177-.012-.316-.035-.417a1.347 1.347 0 00-.105-.294.508.508 0 00-.205-.22 1.214 1.214 0 00-.335-.124C10.23.99 9.781.95 9.234.944c-1.239-.012-2.035.062-2.388.221a1.35 1.35 0 00-.38.275c-.12.135-.137.208-.05.22.4.055.683.187.85.395l.06.11c.046.08.093.22.14.422.046.202.076.426.09.67.032.447.032.83 0 1.147a12.6 12.6 0 01-.096.744c-.03.177-.075.321-.135.431-.06.11-.1.178-.12.202a.166.166 0 01-.05.046.808.808 0 01-.27.046c-.093 0-.206-.043-.34-.129a2.333 2.333 0 01-.414-.353 4.752 4.752 0 01-.485-.629c-.18-.269-.366-.587-.56-.954l-.16-.266a25.096 25.096 0 01-.409-.748 13.858 13.858 0 01-.46-.95.613.613 0 00-.24-.294l-.05-.027a.705.705 0 00-.16-.078 1.134 1.134 0 00-.229-.06L.64 1.403c-.28 0-.47.058-.57.175l-.04.055c-.02.03-.03.08-.03.147 0 .067.02.15.06.247.4.863.834 1.695 1.304 2.497.47.801.878 1.447 1.224 1.936.347.49.7.951 1.06 1.386.36.434.598.712.714.835.117.122.208.214.275.275l.25.22c.16.147.395.323.704.528.31.205.653.407 1.03.606.376.198.814.36 1.314.486.5.126.986.176 1.459.152h1.15c.232-.019.409-.086.529-.202l.04-.046a.583.583 0 00.075-.17.864.864 0 00.035-.252c-.007-.263.015-.5.064-.711.05-.211.107-.37.17-.478a1.21 1.21 0 01.215-.27.856.856 0 01.17-.133.682.682 0 01.08-.032c.16-.05.348-.002.565.142.217.144.42.321.61.532.19.211.418.448.684.711.267.264.5.46.7.588l.2.11c.133.073.306.14.52.202.212.061.399.076.559.046l2.558-.037c.253 0 .45-.038.59-.115.14-.076.223-.16.25-.252a.653.653 0 00.005-.312 1.076 1.076 0 00-.07-.243z" fill="#2C3D52"/></svg>