<svg xmlns="http://www.w3.org/2000/svg" width="46" height="46" fill="none" viewBox="0 0 46 46"><path d="M36.922 0a9.08 9.08 0 0 1 9.08 9.079V36.92A9.08 9.08 0 0 1 36.921 46H0L.002 0z"/><path fill="#fff" d="M38.03 23.385c0-.143-.125-.26-.28-.265-5.531-.192-8.896-.838-11.254-3.004-2.361-2.169-3.063-5.264-3.272-10.354-.005-.142-.133-.258-.288-.258h-.645c-.155 0-.283.116-.288.258-.21 5.09-.913 8.185-3.271 10.354-2.359 2.166-5.724 2.812-11.255 3.004-.155.005-.28.122-.28.265v.595c0 .142.125.26.28.264 5.531.192 8.896.839 11.255 3.005 2.355 2.164 3.06 5.25 3.271 10.322.005.142.133.258.288.258h.647c.155 0 .284-.116.288-.258.212-5.072.916-8.158 3.272-10.322 2.358-2.166 5.723-2.81 11.255-3.005.155-.004.28-.122.28-.264v-.595z"/></svg>