<svg width="192" height="37" fill="none" xmlns="http://www.w3.org/2000/svg"><path d="M55.444.699H56v35.694h-.563V.695l.007.004z" fill="#fff"/><g clip-path="url(#clip0)" fill="#fff"><path fill-rule="evenodd" clip-rule="evenodd" d="M83.006 22.248a2.997 2.997 0 00-.767-2.16 3.786 3.786 0 00-2.038-1.06v-.07a2.942 2.942 0 001.383-1.124 3.03 3.03 0 00.504-1.734 2.887 2.887 0 00-.367-1.487 2.632 2.632 0 00-1.1-1.035 4.457 4.457 0 00-1.463-.464 17.187 17.187 0 00-2.3-.114H72v13.34h5.506a9.018 9.018 0 002.36-.255c.62-.165 1.2-.45 1.705-.838a3.654 3.654 0 001.049-1.27 3.804 3.804 0 00.386-1.747v.018zm-4.45-5.475a1.523 1.523 0 00-.171-.667 1.018 1.018 0 00-.485-.49 2.02 2.02 0 00-.807-.158h-1.658v2.808h1.678c.257-.014.509-.077.74-.184.248-.104.45-.288.571-.521a1.79 1.79 0 00.131-.788zm.865 5.393c.02-.336-.07-.67-.256-.953a1.537 1.537 0 00-.78-.52 2.703 2.703 0 00-.866-.134h-2.123v3.297h2.051c.384-.019.76-.11 1.108-.267a1.39 1.39 0 00.656-.572c.147-.26.222-.554.216-.851h-.007z"/><path d="M100.842 25.704H96.45l-2.898-4.707h-.963v4.707h-3.816V13.82h3.816v4.77c.415.018.828-.06 1.206-.228.388-.3.687-.694.865-1.143l.328-.699.314-.68c.29-.668.79-1.23 1.43-1.607a4.517 4.517 0 012.058-.432h1.35v3.176h-.74a1.428 1.428 0 00-.656.134 1.84 1.84 0 00-.459.337 1.58 1.58 0 00-.308.425c-.072.14-.138.28-.203.413-.17.381-.295.635-.374.813a1.38 1.38 0 01-.42.47l3.862 6.136zm13.176-5.939c.095 1.69-.5 3.35-1.659 4.618a6.174 6.174 0 01-2.152 1.326 6.321 6.321 0 01-2.522.364 6.32 6.32 0 01-2.518-.366 6.17 6.17 0 01-2.149-1.324 6.313 6.313 0 01-1.31-2.147 6.17 6.17 0 01-.355-2.47 6.197 6.197 0 01.355-2.48 6.342 6.342 0 011.31-2.158 6.19 6.19 0 012.151-1.316 6.345 6.345 0 012.516-.361 6.366 6.366 0 012.52.365c.805.29 1.538.739 2.154 1.318a6.345 6.345 0 011.659 4.631zm-3.934 0a6.997 6.997 0 00-.183-1.76 3.033 3.033 0 00-.498-1.124 1.866 1.866 0 00-.761-.635 2.58 2.58 0 00-.97-.172 2.697 2.697 0 00-.931.185c-.305.124-.57.326-.767.584a3.178 3.178 0 00-.518 1.137 6.94 6.94 0 00-.196 1.804c-.02.593.037 1.187.17 1.766.093.383.255.746.479 1.074.188.277.454.498.767.635.322.13.667.195 1.016.19.32-.003.636-.068.931-.19.303-.118.567-.316.76-.572.237-.333.411-.706.511-1.099a6.91 6.91 0 00.177-1.772l.013-.05zm17.549 5.94h-3.848v-5.082h-3.933v5.081h-3.809V13.82h3.809v4.117h3.933V13.82h3.822v11.885h.026zm12.992-9.3h-3.802v9.3h-3.821v-9.3h-3.796v-2.586h11.419v2.586zm8.325 6.2v-2.478l-1.573.159c-.402.05-.798.142-1.18.273a1.66 1.66 0 00-.78.515 1.425 1.425 0 00-.282.914c-.025.214.005.43.086.631.081.2.211.379.38.52.415.23.892.338 1.37.31a2.585 2.585 0 001.029-.228 3.13 3.13 0 00.95-.636v.02zm0 1.835l-.708.572a4.496 4.496 0 01-.832.508c-.32.153-.653.276-.996.369a5.82 5.82 0 01-1.364.127 3.734 3.734 0 01-1.464-.254 3.644 3.644 0 01-2.055-2.028 3.557 3.557 0 01-.257-1.44 3.72 3.72 0 01.551-2.135 3.677 3.677 0 011.567-1.27 8.5 8.5 0 012.477-.68 44.247 44.247 0 013.101-.292v-.09a1.348 1.348 0 00-.162-.785 1.41 1.41 0 00-.585-.567 5.115 5.115 0 00-2.242-.382 6.362 6.362 0 00-1.586.242 12.58 12.58 0 00-1.77.635h-.328v-2.896c.38-.102.99-.23 1.835-.375.844-.145 1.7-.217 2.557-.216 2.111 0 3.651.336 4.589 1.022.488.362.877.836 1.13 1.38a3.5 3.5 0 01.318 1.733v8.086h-3.802v-1.27l.026.006zm18.755 1.264h-4.399l-2.89-4.707h-.997v4.707h-3.841V13.82h3.815v4.77a2.64 2.64 0 001.206-.228c.39-.298.69-.693.865-1.143.105-.21.217-.445.328-.699.112-.254.223-.483.321-.68a3.422 3.422 0 011.423-1.607 4.517 4.517 0 012.058-.432h1.351v3.176h-.741a1.47 1.47 0 00-.656.134 1.85 1.85 0 00-.465.337 1.59 1.59 0 00-.308.425c-.072.14-.138.28-.203.413-.171.381-.289.635-.368.813a1.402 1.402 0 01-.426.47l3.927 6.136zm11.413-9.3h-3.802v9.3H171.5v-9.3h-3.795V13.82h11.419v2.586h-.006zm7.866 9.612c-2.314 0-4.084-.534-5.323-1.607-1.239-1.074-1.849-2.598-1.849-4.58a6.253 6.253 0 01.384-2.489 6.389 6.389 0 011.34-2.155 6.438 6.438 0 012.216-1.354 6.582 6.582 0 012.589-.38c1.884 0 3.296.49 4.235 1.467.94.979 1.414 2.384 1.423 4.218v1.328h-8.378c.02.479.142.948.361 1.378.189.357.469.66.812.883.343.231.731.391 1.141.47.469.103.948.152 1.429.146a5.64 5.64 0 001.311-.146 5.666 5.666 0 001.18-.375 8.47 8.47 0 001.527-.844h.4v3.093l-.852.33c-.349.127-.706.23-1.068.312-.42.11-.847.192-1.279.248-.534.067-1.073.096-1.612.088l.013-.031zm1.265-7.782a2.786 2.786 0 00-.564-1.791 1.991 1.991 0 00-.734-.498 2.057 2.057 0 00-.885-.137c-.32-.017-.64.03-.941.14a2.33 2.33 0 00-.803.495 2.66 2.66 0 00-.655 1.76l4.582.031z"/></g><path d="M35.265 26.343a2.112 2.112 0 00-.117-.207c-.6-.991-1.745-2.207-3.435-3.65l-.036-.033-.017-.016-.019-.017h-.018c-.767-.671-1.253-1.123-1.456-1.354-.372-.44-.456-.886-.252-1.338.143-.34.683-1.062 1.618-2.163a115.2 115.2 0 001.169-1.403c2.074-2.532 2.973-4.15 2.697-4.855l-.107-.165c-.072-.1-.258-.19-.557-.272-.3-.083-.684-.097-1.151-.042l-5.179.033c-.084-.027-.204-.025-.36.008l-.234.05-.09.042-.071.05a.774.774 0 00-.198.173 1.115 1.115 0 00-.18.288 26.052 26.052 0 01-1.924 3.716 34.9 34.9 0 01-1.223 1.775c-.371.501-.683.87-.935 1.106a6.335 6.335 0 01-.683.57c-.204.143-.36.204-.468.182a12.9 12.9 0 01-.306-.066 1.14 1.14 0 01-.404-.405 1.702 1.702 0 01-.207-.644 6.515 6.515 0 01-.063-.669c-.005-.187-.003-.451.01-.793.012-.34.018-.572.018-.693 0-.418.008-.873.026-1.363l.045-1.164c.012-.286.018-.589.018-.908 0-.32-.021-.57-.063-.751a2.429 2.429 0 00-.188-.529.916.916 0 00-.369-.396 2.186 2.186 0 00-.602-.223c-.636-.132-1.445-.204-2.428-.215-2.23-.022-3.662.11-4.298.397-.252.12-.48.286-.683.495-.216.242-.246.375-.09.396.72.1 1.229.336 1.528.71l.108.199c.084.143.168.396.252.76.084.363.138.764.162 1.205.06.803.06 1.491 0 2.064a23.78 23.78 0 01-.17 1.337c-.055.32-.136.578-.244.776-.108.199-.18.32-.216.364a.3.3 0 01-.09.082 1.454 1.454 0 01-.485.083c-.168 0-.372-.077-.611-.231a4.2 4.2 0 01-.746-.636c-.258-.27-.549-.647-.873-1.131a19.27 19.27 0 01-1.007-1.718l-.287-.479c-.18-.308-.426-.757-.738-1.345a24.953 24.953 0 01-.827-1.71 1.103 1.103 0 00-.431-.528l-.09-.05a1.266 1.266 0 00-.288-.14 2.039 2.039 0 00-.414-.107l-4.927.032c-.503 0-.845.105-1.025.314l-.072.1a.498.498 0 00-.054.264c0 .12.036.27.108.445a52.69 52.69 0 002.347 4.492c.845 1.442 1.58 2.604 2.202 3.484a41.29 41.29 0 001.907 2.494c.647.781 1.076 1.282 1.285 1.502.21.221.375.386.495.496l.45.396c.287.264.71.58 1.267.95.558.369 1.175.732 1.852 1.09.678.357 1.466.65 2.365.875.9.226 1.774.316 2.626.273h2.068c.42-.034.737-.155.953-.364l.071-.083a.993.993 0 00.135-.305 1.55 1.55 0 00.063-.454c-.012-.473.027-.9.117-1.28.09-.38.192-.665.306-.858.114-.193.243-.355.386-.487.144-.132.246-.212.306-.24a1.3 1.3 0 01.144-.057c.288-.088.626-.003 1.016.256s.755.578 1.097.958c.342.38.752.806 1.232 1.28.48.473.899.825 1.259 1.056l.359.198c.24.133.552.254.936.364.383.11.718.137 1.006.082l4.604-.066c.455 0 .81-.069 1.06-.206.252-.138.402-.29.45-.454a1.2 1.2 0 00.01-.562 1.944 1.944 0 00-.127-.438z" fill="#fff"/><defs><clipPath id="clip0"><path fill="#fff" transform="translate(72 13)" d="M0 0h120v13.333H0z"/></clipPath></defs></svg>