<svg xmlns="http://www.w3.org/2000/svg" width="13" height="13" fill="none"><path fill="#C3D2E4" d="M5.357 6.88h2.286v.763H5.357z"/><path fill="#C3D2E4" d="M10.547 7.643H8.404v.38a.38.38 0 0 1-.38.381H4.976a.38.38 0 0 1-.381-.38v-.381H2.453c-.492 0-.928-.314-1.084-.781L0 2.752v8.318c0 .63.513 1.143 1.143 1.143h10.714c.63 0 1.143-.513 1.143-1.143V2.753l-1.37 4.109a1.14 1.14 0 0 1-1.083.78z"/><path fill="#C3D2E4" d="M8.023.787H4.977c-.63 0-1.143.513-1.143 1.143v.38H.655l1.437 4.31a.38.38 0 0 0 .361.26h2.143V6.5c0-.21.17-.38.38-.38h3.047c.21 0 .381.17.381.38v.38h2.143a.38.38 0 0 0 .361-.26l1.437-4.31H9.166v-.38c0-.63-.513-1.143-1.143-1.143M4.596 2.311V1.93c0-.21.17-.381.38-.381h3.047c.21 0 .381.17.381.38v.382z"/></svg>