<svg xmlns="http://www.w3.org/2000/svg" width="13" height="17" fill="none" viewBox="0 0 13 17"><path fill="#2C3D52" d="M6.592.668a3.886 3.886 0 0 0-3.884 3.884 3.87 3.87 0 0 0 3.884 3.884 3.87 3.87 0 0 0 3.884-3.884A3.87 3.87 0 0 0 6.592.668m0 5.814A1.936 1.936 0 0 1 4.65 4.54c0-1.077.865-1.93 1.942-1.93a1.936 1.936 0 1 1 0 3.872"/><path fill="#2C3D52" d="M12.312 9.017a1.29 1.29 0 0 0-1.788-.498C7.883 10 5.314 10 2.672 8.52c-.639-.367-1.444-.13-1.811.521a1.29 1.29 0 0 0 .52 1.788 12 12 0 0 0 2.748 1.137l-1.871 1.871c-.521.521-.521 1.35 0 1.848.497.52 1.326.52 1.847 0l2.487-2.487 2.487 2.487c.497.52 1.326.52 1.847 0 .521-.521.521-1.35 0-1.848l-1.87-1.87c.959-.25 1.882-.64 2.747-1.138.64-.367.876-1.16.509-1.811q0 .034 0 0"/></svg>