<svg width="16" height="16" fill="none" xmlns="http://www.w3.org/2000/svg"><path d="M3.058 11.215a.27.27 0 10.338-.424 7.426 7.426 0 01-.625-.558L.767 8.228l2.067-2.067a7.315 7.315 0 017.543-1.77.271.271 0 00.173-.514 7.854 7.854 0 00-8.1 1.9L0 8.229l2.388 2.388c.211.212.437.413.67.599zm10.554-5.436a7.96 7.96 0 00-1.19-.98.271.271 0 00-.302.45c.395.265.769.572 1.109.913l2.005 2.004-2.068 2.067a7.387 7.387 0 01-7.682 1.723.27.27 0 10-.183.51 7.928 7.928 0 008.248-1.85L16 8.167 13.613 5.78z" fill="#90A9ED"/><path d="M8.275 11.319a3.108 3.108 0 01-1.645-.469.272.272 0 00-.286.46 3.662 3.662 0 005.589-3.107c0-.728-.213-1.43-.617-2.033a.271.271 0 00-.45.301 3.12 3.12 0 01-2.591 4.847zm0-6.232c.56 0 1.108.15 1.586.433a.271.271 0 00.276-.466 3.662 3.662 0 00-5.149 4.759.271.271 0 00.488-.239 3.12 3.12 0 012.8-4.487zM14.8 1.508a.27.27 0 00-.383 0l-12.6 12.6a.27.27 0 10.383.383l12.6-12.6a.27.27 0 000-.383z" fill="#90A9ED"/></svg>