<svg xmlns="http://www.w3.org/2000/svg" width="18" height="18" fill="none"><path fill="#2C3D52" d="m17.824 15.224-3.583-3.582 2.556-1.476a.602.602 0 0 0-.078-1.08L5.322 4.54a.602.602 0 0 0-.782.782l4.545 11.397a.602.602 0 0 0 1.08.078l1.477-2.556 3.582 3.583a.6.6 0 0 0 .852 0l1.748-1.748a.6.6 0 0 0 0-.852M2.642 1.791a.602.602 0 0 0-.851.851L3.129 3.98a.6.6 0 0 0 .851 0 .6.6 0 0 0 0-.851zm.454 4.161a.6.6 0 0 0-.602-.602H.602a.602.602 0 1 0 0 1.204h1.892c.332 0 .602-.27.602-.602M2.852 7.81 1.514 9.148a.602.602 0 0 0 .851.851l1.338-1.337a.602.602 0 1 0-.851-.852m3.101-4.714c.332 0 .602-.27.602-.602V.602a.602.602 0 0 0-1.204 0v1.892c0 .332.27.602.602.602m2.283.783a.6.6 0 0 0 .425-.176L10 2.365a.602.602 0 1 0-.851-.851L7.81 2.85a.602.602 0 0 0 .426 1.028z"/></svg>