<svg xmlns="http://www.w3.org/2000/svg" width="16" height="13" fill="none" viewBox="0 0 16 13"><path fill="#2C3D52" d="M14.547.064c.247-.108.72-.11.747.24-.03.412-.135.814-.199 1.222a514 514 0 0 1-2.37 11.165c-.102.147-.228.305-.426.309-.24-.03-.43-.194-.622-.322-1.186-.808-2.381-1.603-3.565-2.414-.622.575-1.258 1.126-1.866 1.713-.168.157-.345.399-.608.342-.204-.11-.252-.359-.338-.554-.466-1.326-.868-2.683-1.284-4.03-1.028-.393-2.063-.769-3.095-1.149-.324-.124-.707-.222-.887-.548-.113-.208.076-.431.255-.524.46-.24.964-.381 1.446-.572C6.012 3.331 10.278 1.694 14.547.064m-2.489 2.502A3180 3180 0 0 1 4.72 7.322l-.022.04c.355 1.171.702 2.345 1.067 3.513.097-.776.204-1.551.312-2.326q3.243-3.14 6.478-6.284-.261.13-.498.301z"/></svg>