<svg xmlns="http://www.w3.org/2000/svg" width="20" height="20" fill="none" viewBox="0 0 20 20"><g clip-path="url(#a)"><path fill="#959EA8" d="M10 19.6C4.707 19.6.4 15.293.4 10S4.707.4 10 .4s9.6 4.307 9.6 9.6-4.307 9.6-9.6 9.6m0-18c-4.632 0-8.4 3.768-8.4 8.4s3.768 8.4 8.4 8.4 8.4-3.768 8.4-8.4-3.768-8.4-8.4-8.4m4.468 12.537a.6.6 0 0 0 .269-.805C14.68 13.22 13.332 10.6 10 10.6c-3.333 0-4.68 2.62-4.737 2.732a.599.599 0 0 0 1.072.539C6.378 13.786 7.425 11.8 10 11.8c2.574 0 3.621 1.986 3.663 2.068a.6.6 0 0 0 .805.269M13 8.8a1.201 1.201 0 0 1 0-2.4 1.201 1.201 0 0 1 0 2.4m-6 0a1.201 1.201 0 0 1 0-2.4 1.201 1.201 0 0 1 0 2.4"/></g><defs><clipPath id="a"><path fill="#fff" d="M0 0h20v20H0z"/></clipPath></defs></svg>