<svg xmlns="http://www.w3.org/2000/svg" width="39" height="21" fill="none"><path fill="#2C3D52" d="M38.152 19.053a2 2 0 0 0-.13-.23q-1-1.65-3.815-4.052l-.04-.037-.02-.018-.02-.018h-.02q-1.277-1.12-1.617-1.505-.62-.733-.28-1.485.24-.57 1.798-2.402.819-.972 1.297-1.559 3.456-4.218 2.996-5.392l-.119-.182q-.12-.165-.619-.303c-.499-.138-.759-.107-1.278-.046l-5.751.037q-.14-.046-.4.009l-.26.055-.1.046-.079.055a.9.9 0 0 0-.22.193q-.12.137-.199.32a29 29 0 0 1-2.137 4.127 39 39 0 0 1-1.358 1.971q-.62.834-1.038 1.229a7 7 0 0 1-.76.632q-.34.24-.518.202l-.34-.073a1.3 1.3 0 0 1-.45-.45 1.9 1.9 0 0 1-.229-.715 7 7 0 0 1-.07-.743q-.01-.311.01-.88.02-.57.02-.77 0-.698.03-1.513.03-.816.05-1.293t.02-1.009a4 4 0 0 0-.07-.834 2.7 2.7 0 0 0-.21-.587 1 1 0 0 0-.409-.44 2.4 2.4 0 0 0-.669-.248Q20.09.927 18.452.907q-3.714-.037-4.773.44-.42.202-.758.55-.36.404-.1.44 1.198.165 1.697.789l.12.22q.14.238.28.844.14.605.18 1.338.099 1.34 0 2.292-.1.954-.19 1.486-.09.531-.27.862t-.24.403a.3.3 0 0 1-.1.092q-.259.091-.539.092-.279 0-.679-.257a4.7 4.7 0 0 1-.828-.706q-.43-.45-.97-1.257a21 21 0 0 1-1.117-1.907l-.32-.532q-.3-.513-.818-1.494a28 28 0 0 1-.919-1.898 1.23 1.23 0 0 0-.48-.587l-.1-.055a1.4 1.4 0 0 0-.319-.156 2.3 2.3 0 0 0-.459-.12l-5.472.037q-.838 0-1.138.349l-.08.11Q0 2.373 0 2.575q0 .203.12.495a59 59 0 0 0 2.606 4.988q1.408 2.403 2.446 3.87a46 46 0 0 0 2.117 2.769q1.079 1.302 1.428 1.669.35.367.549.55l.5.44q.479.44 1.407 1.054.93.614 2.057 1.211 1.128.596 2.626.972 1.498.375 2.916.302h2.296q.699-.055 1.059-.403l.08-.092a1.2 1.2 0 0 0 .149-.339 1.7 1.7 0 0 0 .07-.504q-.02-.79.13-1.421.148-.633.34-.954a2.4 2.4 0 0 1 .428-.54q.24-.22.34-.267.1-.045.16-.064.48-.147 1.128.285.65.431 1.219 1.063.569.633 1.367 1.422.8.787 1.398 1.173l.4.22a5 5 0 0 0 1.038.404q.639.183 1.118.091l5.112-.073q.76 0 1.179-.23.419-.228.499-.503.08-.276.01-.624a2.2 2.2 0 0 0-.14-.486"/></svg>