<svg xmlns="http://www.w3.org/2000/svg" width="13" height="14" fill="none"><path fill="#48484C" d="M6.528 3.8A2.91 2.91 0 0 0 3.62 6.708a2.91 2.91 0 0 0 2.908 2.908 2.91 2.91 0 0 0 2.907-2.908A2.91 2.91 0 0 0 6.528 3.8m0 5.406A2.5 2.5 0 0 1 4.03 6.708a2.5 2.5 0 0 1 2.498-2.497 2.5 2.5 0 0 1 2.497 2.497 2.5 2.5 0 0 1-2.497 2.498M6.5 2.738a.21.21 0 0 0 .208-.208V.208a.208.208 0 1 0-.416 0V2.53c0 .115.093.208.208.208m0 7.83a.21.21 0 0 0-.208.208v2.322a.208.208 0 1 0 .416 0v-2.322a.21.21 0 0 0-.208-.208m6.292-4.238H10.47a.208.208 0 1 0 0 .416h2.322a.208.208 0 1 0 0-.416m-10.054.208a.21.21 0 0 0-.208-.208H.208a.208.208 0 1 0 0 .416H2.53a.21.21 0 0 0 .208-.208M9.24 4.133c.053 0 .107-.02.147-.061L11.03 2.43a.208.208 0 1 0-.294-.294L9.093 3.778a.208.208 0 0 0 .147.355m.147 5.265a.208.208 0 1 0-.294.294l1.642 1.642a.207.207 0 0 0 .294 0 .21.21 0 0 0 0-.294zM3.613 4.072a.207.207 0 0 0 .294 0 .21.21 0 0 0 0-.294L2.265 2.136a.208.208 0 1 0-.294.294zm.303 5.34-.01-.014a.21.21 0 0 0-.293 0l-.82.82-.838.799a.21.21 0 0 0-.007.294l.014.01.009.013a.207.207 0 0 0 .294 0l.819-.82.839-.798a.21.21 0 0 0 .007-.294z"/></svg>