<svg xmlns="http://www.w3.org/2000/svg" width="30" height="30" fill="none"><path fill="#6A453B" d="M19.362 7.981H10.42a2.59 2.59 0 0 0-2.588 2.589v8.941A2.59 2.59 0 0 0 10.42 22.1h8.942a2.59 2.59 0 0 0 2.588-2.589V10.57a2.59 2.59 0 0 0-2.588-2.589M14.89 19.688a4.653 4.653 0 0 1-4.648-4.648 4.653 4.653 0 0 1 4.648-4.647 4.653 4.653 0 0 1 4.648 4.647 4.653 4.653 0 0 1-4.648 4.648m4.797-8.334a1.1 1.1 0 0 1-1.1-1.1 1.101 1.101 0 0 1 2.2 0c0 .607-.494 1.1-1.1 1.1"/><path fill="#6A453B" d="M14.89 12.357a2.687 2.687 0 0 0-2.683 2.683 2.69 2.69 0 0 0 2.684 2.684 2.687 2.687 0 0 0 2.684-2.684 2.687 2.687 0 0 0-2.684-2.683z"/><path fill="#6A453B" d="M14.89 0c-8.283 0-15 6.716-15 15s6.717 15 15 15c8.285 0 15-6.716 15-15s-6.715-15-15-15m9.024 19.511a4.557 4.557 0 0 1-4.553 4.552H10.42a4.557 4.557 0 0 1-4.552-4.552V10.57a4.557 4.557 0 0 1 4.552-4.552h8.941a4.557 4.557 0 0 1 4.553 4.552z"/></svg>