<svg xmlns="http://www.w3.org/2000/svg" width="12" height="12" fill="none"><path fill="#2C3D52" d="M11.873 4.199 8.444.77a.4.4 0 0 0-.301-.127.4.4 0 0 0-.301.127.4.4 0 0 0-.128.301v1.715h-1.5q-4.774 0-5.86 2.698-.353.898-.354 2.23 0 1.112.85 3.02a16 16 0 0 0 .161.362 1 1 0 0 0 .087.147q.08.114.188.114.101 0 .157-.067a.25.25 0 0 0 .057-.167q0-.06-.017-.178a1 1 0 0 1-.017-.157 11 11 0 0 1-.033-.824q0-.675.117-1.212a3.6 3.6 0 0 1 .325-.927 2.3 2.3 0 0 1 .536-.676 3 3 0 0 1 .706-.466q.379-.18.89-.284a8 8 0 0 1 1.032-.144q.52-.04 1.175-.04h1.5v1.714q0 .174.127.301a.4.4 0 0 0 .302.127.4.4 0 0 0 .301-.127l3.429-3.429a.4.4 0 0 0 .127-.3.4.4 0 0 0-.127-.302"/></svg>