<svg xmlns="http://www.w3.org/2000/svg" width="192" height="37" fill="none"><path fill="#fff" d="M55.444.699H56v35.694h-.563V.695z"/><g fill="#fff" clip-path="url(#a)"><path fill-rule="evenodd" d="M83.006 22.248a3 3 0 0 0-.767-2.16 3.8 3.8 0 0 0-2.038-1.06v-.07a2.94 2.94 0 0 0 1.383-1.124 3.03 3.03 0 0 0 .504-1.734 2.9 2.9 0 0 0-.367-1.487 2.63 2.63 0 0 0-1.1-1.035 4.5 4.5 0 0 0-1.463-.464 17 17 0 0 0-2.3-.114H72v13.34h5.506a9 9 0 0 0 2.36-.255c.62-.165 1.2-.45 1.705-.838a3.65 3.65 0 0 0 1.049-1.27 3.8 3.8 0 0 0 .386-1.747zm-4.45-5.475a1.5 1.5 0 0 0-.171-.667 1.02 1.02 0 0 0-.485-.49 2 2 0 0 0-.807-.158h-1.658v2.808h1.678c.257-.014.509-.077.74-.184.248-.104.45-.288.571-.521a1.8 1.8 0 0 0 .131-.788zm.865 5.393c.02-.336-.07-.67-.256-.953a1.54 1.54 0 0 0-.78-.52 2.7 2.7 0 0 0-.866-.134h-2.123v3.297h2.051c.384-.019.76-.11 1.108-.267a1.4 1.4 0 0 0 .656-.572c.147-.26.222-.554.216-.851h-.007z" clip-rule="evenodd"/><path d="M100.842 25.704H96.45l-2.898-4.707h-.963v4.707h-3.816V13.82h3.816v4.77c.415.018.828-.06 1.206-.228.388-.3.687-.694.865-1.143l.328-.699.314-.68c.29-.668.79-1.23 1.43-1.607a4.5 4.5 0 0 1 2.058-.432h1.35v3.176h-.74a1.4 1.4 0 0 0-.656.134 1.8 1.8 0 0 0-.459.337 1.6 1.6 0 0 0-.308.425q-.107.212-.203.413c-.17.381-.295.635-.374.813a1.4 1.4 0 0 1-.42.47zm13.176-5.939c.095 1.69-.5 3.35-1.659 4.618a6.2 6.2 0 0 1-2.152 1.326 6.3 6.3 0 0 1-2.522.364 6.3 6.3 0 0 1-2.518-.366 6.2 6.2 0 0 1-2.149-1.324 6.3 6.3 0 0 1-1.31-2.147 6.2 6.2 0 0 1-.355-2.47 6.2 6.2 0 0 1 .355-2.48 6.3 6.3 0 0 1 1.31-2.158 6.2 6.2 0 0 1 2.151-1.316 6.35 6.35 0 0 1 2.516-.361 6.4 6.4 0 0 1 2.52.365c.805.29 1.538.739 2.154 1.318a6.35 6.35 0 0 1 1.659 4.631m-3.934 0a7 7 0 0 0-.183-1.76 3 3 0 0 0-.498-1.124 1.87 1.87 0 0 0-.761-.635 2.6 2.6 0 0 0-.97-.172 2.7 2.7 0 0 0-.931.185c-.305.124-.57.326-.767.584a3.2 3.2 0 0 0-.518 1.137 7 7 0 0 0-.196 1.804c-.02.593.037 1.187.17 1.766.093.383.255.746.479 1.074.188.277.454.498.767.635.322.13.667.195 1.016.19.32-.003.636-.068.931-.19.303-.118.567-.316.76-.572.237-.333.411-.706.511-1.099a7 7 0 0 0 .177-1.772l.013-.05zm17.549 5.94h-3.848v-5.082h-3.933v5.081h-3.809V13.82h3.809v4.117h3.933V13.82h3.822v11.885zm12.992-9.3h-3.802v9.3h-3.821v-9.3h-3.796v-2.586h11.419zm8.325 6.2v-2.478l-1.573.159c-.402.05-.798.142-1.18.273a1.66 1.66 0 0 0-.78.515 1.43 1.43 0 0 0-.282.914c-.025.214.005.43.086.631.081.2.211.379.38.52.415.23.892.338 1.37.31a2.6 2.6 0 0 0 1.029-.228 3.1 3.1 0 0 0 .95-.636zm0 1.835-.708.572a4.5 4.5 0 0 1-.832.508q-.48.23-.996.369a5.8 5.8 0 0 1-1.364.127 3.7 3.7 0 0 1-1.464-.254 3.64 3.64 0 0 1-2.055-2.028 3.6 3.6 0 0 1-.257-1.44 3.7 3.7 0 0 1 .551-2.135 3.7 3.7 0 0 1 1.567-1.27 8.5 8.5 0 0 1 2.477-.68 44 44 0 0 1 3.101-.292v-.09a1.35 1.35 0 0 0-.162-.785 1.4 1.4 0 0 0-.585-.567 5.1 5.1 0 0 0-2.242-.382 6.4 6.4 0 0 0-1.586.242 12.6 12.6 0 0 0-1.77.635h-.328v-2.896c.38-.102.99-.23 1.835-.375.844-.145 1.7-.217 2.557-.216 2.111 0 3.651.336 4.589 1.022.488.362.877.836 1.13 1.38a3.5 3.5 0 0 1 .318 1.733v8.086h-3.802v-1.27zm18.755 1.264h-4.399l-2.89-4.707h-.997v4.707h-3.841V13.82h3.815v4.77a2.64 2.64 0 0 0 1.206-.228c.39-.298.69-.693.865-1.143.105-.21.217-.445.328-.699s.223-.483.321-.68a3.42 3.42 0 0 1 1.423-1.607 4.5 4.5 0 0 1 2.058-.432h1.351v3.176h-.741a1.5 1.5 0 0 0-.656.134 1.9 1.9 0 0 0-.465.337 1.6 1.6 0 0 0-.308.425q-.107.212-.203.413c-.171.381-.289.635-.368.813a1.4 1.4 0 0 1-.426.47zm11.413-9.3h-3.802v9.3H171.5v-9.3h-3.795V13.82h11.419v2.586h-.006zm7.866 9.612c-2.314 0-4.084-.534-5.323-1.607-1.239-1.074-1.849-2.598-1.849-4.58a6.3 6.3 0 0 1 .384-2.489 6.4 6.4 0 0 1 1.34-2.155 6.4 6.4 0 0 1 2.216-1.354 6.6 6.6 0 0 1 2.589-.38q2.826 0 4.235 1.467t1.423 4.218v1.328h-8.378c.02.479.142.948.361 1.378.189.357.469.66.812.883.343.231.731.391 1.141.47q.706.155 1.429.146a5.6 5.6 0 0 0 1.311-.146 5.7 5.7 0 0 0 1.18-.375 8.5 8.5 0 0 0 1.527-.844h.4v3.093l-.852.33q-.524.19-1.068.312-.63.165-1.279.248-.802.1-1.612.088zm1.265-7.782a2.8 2.8 0 0 0-.564-1.791 2 2 0 0 0-.734-.498 2.1 2.1 0 0 0-.885-.137c-.32-.017-.64.03-.941.14a2.3 2.3 0 0 0-.803.495 2.66 2.66 0 0 0-.655 1.76z"/></g><path fill="#fff" d="M35.265 26.343a2 2 0 0 0-.117-.207q-.9-1.486-3.435-3.65l-.036-.033-.017-.016-.019-.017h-.018q-1.151-1.007-1.456-1.354-.558-.66-.252-1.338.215-.51 1.618-2.163a115 115 0 0 0 1.169-1.403q3.111-3.798 2.697-4.855l-.107-.165q-.108-.15-.557-.272-.45-.125-1.151-.042l-5.179.033q-.126-.041-.36.008l-.234.05-.09.042-.071.05a.8.8 0 0 0-.198.173 1.1 1.1 0 0 0-.18.288 26 26 0 0 1-1.924 3.716 35 35 0 0 1-1.223 1.775q-.557.752-.935 1.106a6 6 0 0 1-.683.57q-.306.215-.468.182l-.306-.066a1.14 1.14 0 0 1-.404-.405 1.7 1.7 0 0 1-.207-.644 7 7 0 0 1-.063-.669q-.008-.28.01-.793.018-.51.018-.693 0-.627.026-1.363l.045-1.164q.018-.43.018-.908 0-.48-.063-.751a2.4 2.4 0 0 0-.188-.529.9.9 0 0 0-.369-.396 2.2 2.2 0 0 0-.602-.223q-.954-.198-2.428-.215-3.344-.033-4.298.397-.378.18-.683.495-.324.364-.09.396 1.08.15 1.528.71l.108.199q.126.214.252.76.126.544.162 1.205.09 1.205 0 2.064a24 24 0 0 1-.17 1.337q-.082.48-.244.776-.162.298-.216.364a.3.3 0 0 1-.09.082 1.5 1.5 0 0 1-.485.083q-.252 0-.611-.231a4.2 4.2 0 0 1-.746-.636q-.387-.405-.873-1.131a19 19 0 0 1-1.007-1.718l-.287-.479q-.27-.462-.738-1.345a25 25 0 0 1-.827-1.71 1.1 1.1 0 0 0-.431-.528l-.09-.05a1.3 1.3 0 0 0-.288-.14 2 2 0 0 0-.414-.107l-4.927.032q-.755 0-1.025.314l-.072.1a.5.5 0 0 0-.054.264q0 .181.108.445a53 53 0 0 0 2.347 4.492q1.268 2.163 2.202 3.484a41 41 0 0 0 1.907 2.494q.971 1.172 1.285 1.502.315.331.495.496l.45.396q.431.395 1.267.95.837.553 1.852 1.09 1.017.537 2.365.875t2.626.273h2.068q.63-.05.953-.364l.071-.083a1 1 0 0 0 .135-.305 1.6 1.6 0 0 0 .063-.454q-.018-.71.117-1.28t.306-.858q.171-.29.386-.487.216-.198.306-.24a1 1 0 0 1 .144-.057q.431-.132 1.016.256c.585.388.755.578 1.097.958q.512.57 1.232 1.28t1.259 1.056l.359.198q.36.2.936.364.574.165 1.006.082l4.604-.066q.684 0 1.06-.206.378-.207.45-.454a1.2 1.2 0 0 0 .01-.562 2 2 0 0 0-.127-.438z"/><defs><clipPath id="a"><path fill="#fff" d="M72 13h120v13.333H72z"/></clipPath></defs></svg>