<svg xmlns="http://www.w3.org/2000/svg" width="20" height="11" fill="none"><path fill="#2C3D52" d="M19.092 10.026a1 1 0 0 0-.065-.115q-.5-.826-1.908-2.028l-.02-.019-.01-.009-.01-.009h-.01q-.64-.56-.81-.753-.31-.366-.14-.743.12-.284.9-1.202.41-.487.65-.78 1.727-2.112 1.497-2.698l-.06-.092q-.06-.082-.309-.151a1.7 1.7 0 0 0-.64-.023l-2.878.018a.4.4 0 0 0-.2.005l-.13.027-.05.023-.04.028a.4.4 0 0 0-.11.096.6.6 0 0 0-.1.16q-.47 1.112-1.069 2.066-.37.569-.68.986a5 5 0 0 1-.519.615q-.21.197-.38.316-.17.12-.26.101l-.17-.036a.63.63 0 0 1-.224-.225 1 1 0 0 1-.115-.358 4 4 0 0 1-.035-.372 7 7 0 0 1 .005-.44q.01-.285.01-.386 0-.349.015-.757l.025-.647q.01-.238.01-.505 0-.266-.035-.417a1.4 1.4 0 0 0-.105-.294.5.5 0 0 0-.205-.22 1.2 1.2 0 0 0-.335-.124q-.528-.111-1.348-.12-1.858-.018-2.388.221a1.4 1.4 0 0 0-.38.275q-.18.202-.05.22.6.083.85.395l.06.11q.07.12.14.422.069.304.09.67.048.671 0 1.147a13 13 0 0 1-.096.744q-.045.266-.135.431-.09.166-.12.202a.2.2 0 0 1-.05.046.8.8 0 0 1-.27.046q-.14 0-.34-.129a2.3 2.3 0 0 1-.414-.353 5 5 0 0 1-.485-.629q-.27-.403-.56-.954l-.16-.266a25 25 0 0 1-.409-.748 14 14 0 0 1-.46-.95.6.6 0 0 0-.24-.294l-.05-.027a.7.7 0 0 0-.16-.078 1 1 0 0 0-.229-.06L.64 1.403q-.42 0-.57.175l-.04.055Q0 1.679 0 1.78t.06.247q.6 1.294 1.304 2.497T2.588 6.46q.52.734 1.06 1.386.54.65.714.835.175.183.275.275l.25.22q.24.22.704.528.465.307 1.03.606.564.297 1.314.486t1.459.152h1.15q.349-.028.529-.202l.04-.046a.6.6 0 0 0 .075-.17 1 1 0 0 0 .035-.252q-.01-.395.064-.711.075-.316.17-.478a1.2 1.2 0 0 1 .215-.27 1 1 0 0 1 .17-.133l.08-.032q.24-.075.565.142t.61.532q.285.317.684.711.4.396.7.588l.2.11q.2.11.52.202.318.091.559.046l2.558-.037q.38 0 .59-.115.21-.114.25-.252a.65.65 0 0 0 .005-.312 1 1 0 0 0-.07-.243z"/></svg>