<svg xmlns="http://www.w3.org/2000/svg" width="12" height="13" fill="none"><g clip-path="url(#a)"><path fill="#2C3D52" d="M11.983 5.066a.34.34 0 0 0-.268-.227l-3.744-.532L6.287.92a.332.332 0 0 0-.596.002L4.028 4.32l-3.743.557a.34.34 0 0 0-.269.226.33.33 0 0 0 .086.34L2.82 8.075l-.628 3.73a.33.33 0 0 0 .133.324.33.33 0 0 0 .35.025l3.342-1.771 3.352 1.751a.334.334 0 0 0 .475-.372l-.648-3.706 2.7-2.648a.33.33 0 0 0 .088-.342zM8.61 7.703A.33.33 0 0 0 8.516 8l.564 3.234-2.911-1.52a.34.34 0 0 0-.31 0L2.956 11.25 3.5 8.011a.33.33 0 0 0-.096-.293L1.051 5.433l3.248-.483a.33.33 0 0 0 .249-.182L5.99 1.819 7.454 4.76c.05.099.143.165.251.182l3.252.463z"/></g><defs><clipPath id="a"><path fill="#fff" d="M0 .464h12v12H0z"/></clipPath></defs></svg>