<svg xmlns="http://www.w3.org/2000/svg" width="195" height="40" fill="none"><path fill="#fff" d="M57.444.699h.557v35.694h-.563V.695zm-43.224.946c3.546 0 7.096-.077 10.638.126 2.476.15 5.015 1.022 6.715 2.896 1.678 1.718 2.423 4.14 2.57 6.494.21 3.922.111 7.85.124 11.776-.067 2.308.012 4.702-.798 6.91a8.72 8.72 0 0 1-5.22 5.306c-2.142.822-4.497.764-6.759.82-3.986-.014-7.988.107-11.972-.138-2.745-.17-5.506-1.364-7.156-3.628C.508 29.817.34 26.684.315 23.776c0-4.268-.12-8.54.123-12.8.164-3.002 1.568-6.032 4.172-7.66 2.847-1.84 6.372-1.601 9.612-1.67zm-1.69 3.123c-2.36.063-5.035 0-6.924 1.678-1.79 1.498-2.16 3.993-2.178 6.209a277 277 0 0 0 0 12.38c.036 2.069.338 4.364 1.889 5.875 1.401 1.469 3.519 1.834 5.455 1.889 3.987.128 7.974.088 11.96.04 2.179-.045 4.627-.154 6.312-1.732 1.595-1.401 2.03-3.625 2.078-5.652.128-4.056.086-8.114.04-12.17-.045-2.172-.145-4.598-1.68-6.31-1.336-1.597-3.512-2.098-5.503-2.142-3.819-.143-7.642-.082-11.463-.065h.015zm70.465.954c.867-.524 1.95-.279 2.804.145.42.21.856.598.763 1.129q.084 8.497-.031 16.996c-.017 2.027-.361 4.215-1.754 5.783-.609.61-1.375 1.259-2.294 1.173-.04-.925.433-1.765.55-2.671.317-2.015.21-4.063.252-6.085q.036-6.339.06-12.678c.028-.7.005-1.402-.069-2.098-1.565 1.196-2.404 3.111-2.87 5-.378 1.78-.468 3.8.55 5.395.189.35.516.732.273 1.145-.452.21-.949-.06-1.358-.258a4.9 4.9 0 0 1-2.45-5.172c.606-3.232 2.658-6.236 5.574-7.797zm32.471.399a.684.684 0 0 1 .84-.68c.889.139 1.821.325 2.559.875-.071 1.326-.121 2.654-.174 3.987 1.469.17 3.003.019 4.44.371a1.82 1.82 0 0 1-.419 1.85c-1.352.137-2.716.047-4.071.108-.151 3.225-.26 6.454-.25 9.684.059 1.112.09 2.326.735 3.283.384.577 1.139.21 1.515-.19a6.65 6.65 0 0 0 1.756-3.505c.111-2.425.321-5.023 1.788-7.058.751-1.154 2.056-2.048 3.481-1.903 1.135.033 2.098.768 2.738 1.661-.111-.53.157-1.244.808-1.168.782.07 1.876.134 2.281.92-.019 2.938-.237 5.876-.097 8.813.074.913.103 1.889.583 2.701a1.004 1.004 0 0 0 1.572.178c.699-.76 1.171-1.844.925-2.883-.262-2.906.068-6.045 1.773-8.496.762-1.124 2.099-1.911 3.494-1.714 1.087.076 2 .804 2.608 1.668-.031-.434-.01-1.02.516-1.137a3.6 3.6 0 0 1 2.399.541l.161.31a439 439 0 0 0-.09 10.06c1.588-2.291 2.86-4.826 3.504-7.554-1.357-.912-1.145-3.086.132-3.961.691-.407 1.74-.483 2.309.163.44.54.272 1.276.209 1.908 1.259-.151 2.493-.59 3.777-.596.945 0 1.591 1.015 1.349 1.888-.598 2.818-1.363 5.779-.558 8.637.21.675.665 1.57 1.511 1.454.951-.21 1.341-1.276 1.505-2.124-.42-2.576-.349-5.302.606-7.763.629-1.49 1.653-3.085 3.357-3.454 1.448-.355 2.953.384 3.744 1.605-.038-.461.018-1.143.629-1.164.839.02 2.006.084 2.457.906-.019 3.078-.26 6.16-.078 9.232.08.781.108 1.618.521 2.309.323.568 1.173.585 1.574.094.839-.95 1.277-2.222 1.443-3.462.044-2.864.027-5.728.095-8.59-.028-.328.1-.697.482-.722a7.4 7.4 0 0 1 2.031.394.696.696 0 0 1 .454.739v5.057c.598-1.719 1.078-3.484 1.827-5.145.233-.473.531-1.094 1.158-1.05 1.144-.012 2.632.63 2.676 1.948.071 2.197.065 4.406.359 6.584a33.4 33.4 0 0 1 2.006-7.205c.209-.571.509-1.303 1.227-1.32a4.7 4.7 0 0 1 2.549.954c.452.33.538.92.481 1.438a71 71 0 0 0-.05 7.344c.088 1.01.209 2.098.839 2.937a.84.84 0 0 0 .638.335.84.84 0 0 0 .663-.284c.73-.869.69-2.086 1.154-3.074.325-.529.98 0 .904.482-.048 1.444-.39 2.997-1.374 4.107-.938 1.049-2.631.975-3.683.145-1.011-.76-1.494-2.01-1.714-3.215-.42-2.533-.315-5.107-.283-7.66-1.498 3.052-2.231 6.453-2.344 9.84-.015.27-.331.384-.543.46-.699.149-1.532.073-2.032-.49-.419-.404-.587-.967-.696-1.516-.539-2.678-.563-5.42-.751-8.133-.949 1.158-1.316 2.662-1.744 4.068-.617 2.012-.594 4.136-.674 6.22 0 .369-.06.92-.533.967-.942.166-2.045.178-2.826-.445-.21-.58-.162-1.213-.21-1.82-.453 1.031-1.173 2.164-2.392 2.309-1.806.321-3.456-1.207-3.678-2.938-.802 1.635-2.424 3.007-4.318 2.98-1.452.02-2.728-.984-3.326-2.254-.552 1.15-1.601 2.241-2.959 2.25-1.762-.028-3.185-1.5-3.626-3.129-.772-2.728-.285-5.606.296-8.322-.799-.02-1.594.042-2.39.049a30.4 30.4 0 0 1-5.634 9.927c.021 2.937.319 5.973-.629 8.812-.533 1.77-2.082 3.272-3.945 3.517-1.299.145-2.704-.24-3.645-1.173-1.032-1.049-1.128-2.728-.562-4.03.592-1.341 1.641-2.403 2.667-3.42 1.066-1.05 2.214-2.036 3.28-3.094q.047-.72 0-1.441c-.957 1.469-2.713 2.579-4.52 2.253-1.286-.21-2.277-1.206-2.822-2.34-.514 1.138-1.444 2.263-2.774 2.363-1.731.233-3.282-1.259-3.441-2.937-.575 1.087-1.421 2.075-2.562 2.583-1.19.56-2.659.533-3.737-.235s-1.648-2.023-1.977-3.26c-.489 1.327-1.234 2.63-2.413 3.455-1.123.804-2.761.396-3.62-.61-1.065-1.239-1.357-2.924-1.523-4.5-.78 1.83-1.867 3.652-3.611 4.703-1.832 1.116-4.161 1.087-6.133.386-.483-.222-1.131-.457-1.23-1.05a2.68 2.68 0 0 1 1.217-1.982c.56-.136.963.365 1.393.63.584.432 1.402.82 2.099.42.919-.586 1.011-1.906.629-2.84-.59-1.433-1.914-2.346-2.986-3.397-1.003 1.695-1.993 3.397-3.009 5.086-.803 1.26-1.716 2.518-3.036 3.271-.77.45-1.91.462-2.499-.285-.61-.8-.726-1.846-.84-2.816-.24-3.042.192-6.085.14-9.132-1.063.938-1.738 2.212-2.368 3.456a30.7 30.7 0 0 0-2.518 8.675c-.048.371-.553.371-.839.42-.619 0-1.42.037-1.785-.574-.496-.85-.378-1.888-.42-2.822.01-3.638.046-7.277.063-10.91-.03-.303.056-.735.455-.708a3.8 3.8 0 0 1 2.352.728c.126 2.373-.012 4.765.02 7.147.839-2.308 1.497-4.782 3.132-6.681.736-.873 2.012-1.567 3.133-.99.828.398 1.943.906 1.934 1.985-.059 2.727-.27 5.455-.159 8.183.042.54.061 1.114.344 1.593.533.256.936-.374 1.242-.72 1.332-1.91 2.405-3.987 3.494-6.043-.42-.569-.84-1.213-.829-1.956-.044-1.937 1.777-3.854 3.777-3.477a1.2 1.2 0 0 1 .835.448 1.2 1.2 0 0 1 .248.914c-.135 1.228-.871 2.293-1.612 3.244 1.259.99 2.614 1.861 3.745 2.996a4.17 4.17 0 0 1 1.108 3.718c1.217-1.206 2.164-2.76 2.403-4.477.046-2.43.025-4.862.063-7.29-1.14-.046-2.281-.037-3.418-.11-.384-.169-.277-.697-.246-1.029.103-.466.191-1.05.63-1.322 1.064 0 2.127.078 3.191.097.048-1.352.042-2.707.176-4.054zm12.086 9.404c-1.017.565-1.399 1.771-1.638 2.837a14.6 14.6 0 0 0-.086 5.53c.195.839.484 1.833 1.317 2.26.785.341 1.578-.267 2.01-.884.915-1.356 1.152-3.04 1.245-4.64.04-1.468.079-3.036-.63-4.362a1.66 1.66 0 0 0-2.213-.74zm14.401-.104c-1.2.377-1.698 1.693-2.004 2.797-.478 2.026-.571 4.196-.044 6.217.21.789.682 1.758 1.611 1.827.97-.029 1.631-.91 1.994-1.722.789-1.889.931-3.972.824-5.993-.075-.883-.178-1.823-.705-2.566a1.53 1.53 0 0 0-1.678-.56zm23.99.088c-1.05.539-1.434 1.764-1.666 2.839-.338 1.962-.433 4.007.014 5.96.21.802.63 1.793 1.555 1.944.879.063 1.544-.684 1.928-1.39.934-1.808 1.06-3.902.98-5.902-.075-1.013-.193-2.098-.803-2.937a1.625 1.625 0 0 0-2.008-.504zm-24.878 18.53c-.419.887-.808 1.99-.306 2.927.394.734 1.397.925 2.109.556.724-.296 1.082-1.05 1.29-1.76.59-2.013.527-4.132.55-6.205-1.351 1.368-2.74 2.763-3.643 4.482M25.553 7.74c1.408-.682 3.147.703 2.826 2.22-.149 1.469-2.067 2.293-3.225 1.357-1.274-.854-1.034-3.027.399-3.567zm-9.615 2.35a8.68 8.68 0 0 1 6.86 1.872 8.894 8.894 0 0 1 .63 13.124 8.68 8.68 0 0 1-13.235-1.13 8.93 8.93 0 0 1-1.259-7.7c.907-3.172 3.742-5.696 7.015-6.172zm.196 3.126c-2.858.546-4.925 3.534-4.443 6.402.345 3.018 3.42 5.387 6.442 4.841 3.051-.386 5.321-3.567 4.742-6.58-.42-3.083-3.684-5.393-6.731-4.663z"/></svg>