<svg xmlns="http://www.w3.org/2000/svg" width="48" height="35" fill="none"><path fill="#FE4349" d="M11.122 21.921c.098 1.067.023 3.967-2.755 8a.765.765 0 0 0 .089.976 323 323 0 0 1 2.325 2.348c.647.66.943.96 1.375 1.352a.767.767 0 0 0 1.017.01c4.842-4.215 10.221-12.922 9.443-23.59C22.16 4.753 17.59.207 11.752.207 5.76.206.885 5.08.885 11.071c0 5.78 4.537 10.52 10.237 10.849zm.63-20.184c5.014 0 8.94 3.95 9.337 9.39v.001c.876 11.998-6.256 19.791-8.411 21.855-.21-.207-.45-.45-.804-.811a330 330 0 0 0-1.892-1.913c3.373-5.196 2.737-8.899 2.458-9.43a.79.79 0 0 0-.688-.421c-5.148 0-9.335-4.188-9.335-9.336 0-5.147 4.187-9.335 9.335-9.335m24.676 20.184c.1 1.064.026 3.962-2.755 8a.766.766 0 0 0 .089.976c1.13 1.13 1.831 1.844 2.322 2.345.65.66.945.962 1.377 1.354a.77.77 0 0 0 1.017.01c4.843-4.213 10.222-12.92 9.446-23.59C47.466 4.753 42.896.206 37.058.206 31.066.206 26.19 5.08 26.19 11.072c0 5.781 4.537 10.522 10.237 10.849zm.63-20.184c5.013 0 8.941 3.95 9.339 9.391.873 12-6.259 19.792-8.414 21.855-.21-.207-.451-.452-.806-.814a312 312 0 0 0-1.888-1.91c3.372-5.197 2.736-8.899 2.457-9.429a.8.8 0 0 0-.688-.422c-5.148 0-9.336-4.188-9.336-9.336 0-5.147 4.188-9.335 9.336-9.335"/></svg>