<svg width="14" height="11" fill="none" xmlns="http://www.w3.org/2000/svg"><path d="M13.195 2.047c-.48.204-.996.342-1.538.403a2.6 2.6 0 001.177-1.417 5.546 5.546 0 01-1.701.622 2.727 2.727 0 00-1.955-.81C7.699.846 6.5 1.995 6.5 3.41c0 .2.024.396.07.584-2.226-.107-4.2-1.128-5.52-2.679-.23.378-.362.819-.362 1.289 0 .89.473 1.674 1.19 2.133a2.77 2.77 0 01-1.212-.322v.032c0 1.242.923 2.278 2.148 2.514a2.826 2.826 0 01-1.21.042c.341 1.02 1.33 1.76 2.501 1.78A5.527 5.527 0 01.78 9.879c-.216 0-.429-.012-.638-.035a7.816 7.816 0 004.104 1.153c4.927 0 7.62-3.906 7.62-7.293l-.01-.332a5.24 5.24 0 001.34-1.324z" fill="#2C3D52"/></svg>