<svg xmlns="http://www.w3.org/2000/svg" width="20" height="20" fill="none" viewBox="0 0 20 20"><g clip-path="url(#a)"><path fill="#959EA8" d="M19.137 13.597c.41-.523.607-1.083.582-1.66-.026-.636-.31-1.134-.544-1.44.272-.677.376-1.743-.531-2.571-.665-.607-1.794-.879-3.359-.803-1.1.05-2.02.255-2.057.263h-.005q-.315.058-.656.134c-.017-.268.03-.933.523-2.43.585-1.782.552-3.145-.11-4.057C12.288.075 11.179 0 10.853 0c-.314 0-.602.13-.807.368-.464.54-.41 1.535-.351 1.995-.553 1.48-2.1 5.11-3.41 6.119q-.035.026-.066.058a4.5 4.5 0 0 0-.82 1.23 1.7 1.7 0 0 0-.828-.21H2.02c-.962 0-1.74.783-1.74 1.74v6.797c0 .962.782 1.74 1.74 1.74h2.55c.372 0 .72-.117 1.004-.318l.983.117c.15.021 2.827.36 5.575.305q.748.058 1.4.059c.75 0 1.402-.059 1.946-.176 1.28-.272 2.154-.815 2.597-1.614.339-.61.339-1.217.284-1.602.833-.753.979-1.585.95-2.17a2.8 2.8 0 0 0-.172-.841M2.02 18.707a.61.61 0 0 1-.61-.61v-6.8a.61.61 0 0 1 .61-.611h2.55a.61.61 0 0 1 .61.61v6.797a.61.61 0 0 1-.61.61H2.02zm16.048-5.6a.56.56 0 0 0-.076.682c0 .004.172.297.193.699q.042.824-.787 1.447a.57.57 0 0 0-.192.644c0 .004.18.556-.113 1.079-.28.502-.903.861-1.848 1.062-.758.163-1.786.193-3.05.092h-.058c-2.69.059-5.408-.293-5.437-.297h-.004l-.423-.05q.038-.177.038-.368v-6.8c0-.18-.03-.356-.08-.52.076-.28.285-.902.778-1.434 1.878-1.489 3.714-6.512 3.794-6.729a.53.53 0 0 0 .025-.28c-.071-.469-.046-1.042.054-1.213.222.004.82.067 1.18.564.426.59.41 1.644-.05 3.041-.703 2.129-.762 3.25-.205 3.743.276.247.644.26.911.163q.383-.088.728-.146c.017-.004.038-.008.054-.013 1.284-.28 3.585-.451 4.384.276.677.62.196 1.44.142 1.527a.56.56 0 0 0 .1.728c.004.004.444.418.464.974.017.373-.159.753-.522 1.13"/></g><defs><clipPath id="a"><path fill="#fff" d="M0 0h20v20H0z"/></clipPath></defs></svg>