<svg xmlns="http://www.w3.org/2000/svg" width="23" height="21" fill="none"><path fill="#2C3D52" fill-opacity=".5" d="M21.143 2.267a6.3 6.3 0 0 0-4.5-1.863 6.33 6.33 0 0 0-4.506 1.868l-.63.629-.638-.639A6.35 6.35 0 0 0 6.359.39a6.32 6.32 0 0 0-4.496 1.862A6.3 6.3 0 0 0 0 6.758a6.32 6.32 0 0 0 1.873 4.5l9.157 9.157a.66.66 0 0 0 .927.005l9.176-9.142A6.33 6.33 0 0 0 23 6.772a6.3 6.3 0 0 0-1.857-4.505m-.937 8.08-8.713 8.679L2.8 10.332a5.02 5.02 0 0 1-1.482-3.574 5 5 0 0 1 1.477-3.57A5 5 0 0 1 6.36 1.711c1.35 0 2.623.527 3.579 1.482l1.102 1.102a.656.656 0 0 0 .931 0l1.092-1.092a5.03 5.03 0 0 1 3.574-1.482c1.346 0 2.614.526 3.57 1.477a5 5 0 0 1 1.477 3.574 5 5 0 0 1-1.478 3.574z"/></svg>