<svg width="12" height="12" fill="none" xmlns="http://www.w3.org/2000/svg"><path d="M9.563 4.077c-.041 0-.082.001-.123.004A3.338 3.338 0 006.118.972a3.326 3.326 0 00-3.23 2.517A2.14 2.14 0 000 5.492 2.141 2.141 0 002.14 7.63h7.424c.98 0 1.777-.797 1.777-1.776 0-.98-.797-1.777-1.777-1.777zm0 3.2H2.138A1.787 1.787 0 01.354 5.492a1.786 1.786 0 012.583-1.596.176.176 0 00.254-.126 2.971 2.971 0 012.927-2.443 2.982 2.982 0 012.974 2.955.177.177 0 00.21.173 1.424 1.424 0 011.684 1.398c0 .785-.639 1.423-1.423 1.423zM3.606 8.404a.177.177 0 00-.226.107l-.404 1.12a.177.177 0 10.334.12l.403-1.12a.177.177 0 00-.107-.227zm.651 2.133a.177.177 0 00-.226.106l-.404 1.12a.177.177 0 10.333.12l.404-1.12a.177.177 0 00-.107-.226zM5.89 8.404a.177.177 0 00-.227.107l-.404 1.12a.177.177 0 10.333.12l.404-1.12a.177.177 0 00-.107-.227zm.65 2.133a.177.177 0 00-.226.106l-.404 1.12a.177.177 0 10.333.12l.404-1.12a.177.177 0 00-.107-.226zm1.632-2.133a.177.177 0 00-.227.107l-.403 1.12a.177.177 0 10.333.12l.404-1.12a.177.177 0 00-.107-.227z" fill="#48484C"/></svg>