<svg width="11" height="11" fill="none" xmlns="http://www.w3.org/2000/svg"><path d="M9.245 3.001c-.04 0-.08.001-.12.004A3.227 3.227 0 005.915 0a3.215 3.215 0 00-3.122 2.433A2.07 2.07 0 000 4.369a2.07 2.07 0 002.067 2.067h7.178a1.72 1.72 0 001.717-1.717A1.72 1.72 0 009.245 3zm0 3.093H2.067A1.727 1.727 0 01.343 4.369a1.727 1.727 0 012.496-1.542.17.17 0 00.246-.123A2.873 2.873 0 015.915.343 2.883 2.883 0 018.79 3.199a.171.171 0 00.202.168 1.377 1.377 0 011.628 1.352c0 .758-.617 1.375-1.375 1.375zM7.219 8.51h-.557l.359-.375a.171.171 0 00-.248-.237l-.586.612h-.51v-.533l.61-.56a.171.171 0 10-.232-.253l-.378.348v-.543a.171.171 0 10-.342 0v.557l-.375-.36a.171.171 0 10-.237.248L5.335 8v.51h-.603l-.586-.612a.171.171 0 00-.247.237l.359.375h-.465a.171.171 0 100 .343h.45l-.347.377a.171.171 0 00.252.232l.561-.61h.626v.603l-.612.586a.171.171 0 10.237.248l.375-.36v.465a.171.171 0 00.342 0v-.45l.378.347a.17.17 0 00.242-.01.171.171 0 00-.01-.242l-.61-.561v-.625h.533l.561.609a.171.171 0 10.252-.232l-.347-.377h.543a.171.171 0 100-.343z" fill="#48484C"/></svg>