<svg xmlns="http://www.w3.org/2000/svg" width="17" height="17" fill="none"><path fill="#2C3D52" d="M16.038 1.295a.283.283 0 1 0-.4.4 2.72 2.72 0 0 1 0 3.84.283.283 0 1 0 .4.4 3.285 3.285 0 0 0 0-4.64"/><path fill="#2C3D52" d="M14.845 1.94a.283.283 0 1 0-.4.4c.35.35.543.817.543 1.314s-.193.964-.544 1.315a.283.283 0 1 0 .401.4c.458-.457.71-1.066.71-1.715a2.4 2.4 0 0 0-.71-1.715zM1.36 1.695a.283.283 0 1 0-.401-.4 3.285 3.285 0 0 0 0 4.64.283.283 0 0 0 .4 0 .28.28 0 0 0 0-.4 2.72 2.72 0 0 1 0-3.84z"/><path fill="#2C3D52" d="M2.552 1.861a.283.283 0 0 0-.4 0 2.4 2.4 0 0 0-.71 1.715c0 .648.252 1.257.71 1.715a.283.283 0 0 0 .4 0 .28.28 0 0 0 0-.4 1.85 1.85 0 0 1-.543-1.315c0-.497.193-.964.543-1.314a.28.28 0 0 0 0-.4zM8.5 15.583a.567.567 0 1 0 0-1.133.567.567 0 0 0 0 1.133"/><path fill="#2C3D52" d="M12.068 0H4.93a1.25 1.25 0 0 0-1.248 1.248v14.504c0 .688.56 1.248 1.248 1.248h7.137a1.25 1.25 0 0 0 1.248-1.248V1.248A1.25 1.25 0 0 0 12.068 0M9.349.85h.284a.283.283 0 1 1 0 .567h-.284a.283.283 0 1 1 0-.567m-1.983 0h1.133a.283.283 0 1 1 0 .567H7.366a.283.283 0 1 1 0-.567m1.133 15.3a1.134 1.134 0 0 1 0-2.267 1.134 1.134 0 0 1 0 2.267m4.25-3.117h-8.5V2.267h8.5z"/></svg>