<svg xmlns="http://www.w3.org/2000/svg" width="11" height="12" fill="none"><path fill="#48484C" d="M9.04 2.928q-.049 0-.098.003A3.17 3.17 0 0 0 5.79 0a3.16 3.16 0 0 0-3.06 2.367A2.04 2.04 0 0 0 0 4.283 2.04 2.04 0 0 0 2.037 6.32H9.04c.935 0 1.696-.76 1.696-1.696S9.975 2.928 9.04 2.928m0 3.017H2.037A1.664 1.664 0 0 1 .375 4.283a1.664 1.664 0 0 1 2.406-1.487.187.187 0 0 0 .269-.134A2.78 2.78 0 0 1 5.79.375a2.79 2.79 0 0 1 2.785 2.767.187.187 0 0 0 .222.183 1.323 1.323 0 0 1 1.564 1.299c0 .729-.593 1.321-1.321 1.321M6.115 8.617a.19.19 0 0 0-.163-.095H5.95l-.613.006.233-1.696a.188.188 0 0 0-.341-.13l-1.78 2.643a.188.188 0 0 0 .159.293l.648-.011-.335 2.042a.188.188 0 0 0 .344.128l1.846-2.99a.19.19 0 0 0 .004-.19m-1.67 2.176.218-1.327a.187.187 0 0 0-.185-.218h-.004l-.513.009 1.128-1.675-.153 1.11a.2.2 0 0 0 .045.15.18.18 0 0 0 .143.063l.49-.005zM2.35 8.93l.38-1.056a.187.187 0 1 0-.353-.128l-.38 1.056a.187.187 0 1 0 .352.127zm5.413-1.296a.187.187 0 0 0-.24.112l-.38 1.056a.187.187 0 1 0 .352.127l.38-1.055a.187.187 0 0 0-.112-.24M2.77 10.432a.187.187 0 0 0-.24.113l-.38 1.056a.187.187 0 1 0 .352.127l.38-1.056a.187.187 0 0 0-.112-.24m3.865.148a.187.187 0 0 0-.24.113l-.38 1.056a.187.187 0 1 0 .353.127l.38-1.056a.187.187 0 0 0-.113-.24"/></svg>