<svg xmlns="http://www.w3.org/2000/svg" width="20" height="20" fill="none" viewBox="0 0 20 20"><path fill="#959EA8" d="M10 0C4.486 0 0 4.486 0 10s4.486 10 10 10 10-4.486 10-10S15.514 0 10 0m0 18.75c-4.825 0-8.75-3.925-8.75-8.75S5.175 1.25 10 1.25s8.75 3.925 8.75 8.75-3.925 8.75-8.75 8.75m1.45-10.869v-.44c0-.92.86-1.669 1.915-1.669s1.914.749 1.914 1.67v.44a.625.625 0 1 1-1.25 0v-.44c0-.199-.284-.42-.664-.42s-.664.221-.664.42v.44a.625.625 0 1 1-1.25 0m-6.729 0v-.44c0-.92.859-1.669 1.914-1.669s1.914.749 1.914 1.67v.44a.625.625 0 0 1-1.25 0v-.44c0-.199-.284-.42-.664-.42s-.664.221-.664.42v.44a.625.625 0 1 1-1.25 0m10.222 3.421H5.057a.625.625 0 0 0-.619.54 3 3 0 0 0-.032.462c0 1.18.607 2.277 1.71 3.089 1.045.768 2.424 1.192 3.884 1.192s2.839-.424 3.884-1.193c1.102-.81 1.71-1.908 1.71-3.088q0-.233-.032-.463a.625.625 0 0 0-.62-.539m-1.8 3.084c-.832.612-1.948.949-3.143.949s-2.311-.337-3.143-.95c-.69-.508-1.105-1.151-1.186-1.833h8.658c-.081.682-.495 1.325-1.186 1.834"/></svg>