<svg xmlns="http://www.w3.org/2000/svg" width="16" height="16" fill="none"><path fill="#90A9ED" d="M3.058 11.215a.27.27 0 1 0 .338-.424 7 7 0 0 1-.625-.558L.767 8.228l2.067-2.067a7.32 7.32 0 0 1 7.543-1.77.271.271 0 0 0 .173-.514 7.85 7.85 0 0 0-8.1 1.9L0 8.229l2.388 2.388c.211.212.437.413.67.599zm10.554-5.436a8 8 0 0 0-1.19-.98.271.271 0 0 0-.302.45c.395.265.769.572 1.109.913l2.005 2.004-2.068 2.067a7.39 7.39 0 0 1-7.682 1.723.27.27 0 1 0-.183.51 7.93 7.93 0 0 0 8.248-1.85L16 8.167 13.613 5.78z"/><path fill="#90A9ED" d="M8.275 11.319a3.1 3.1 0 0 1-1.645-.469.272.272 0 0 0-.286.46 3.662 3.662 0 0 0 5.589-3.107c0-.728-.213-1.43-.617-2.033a.271.271 0 0 0-.45.301 3.12 3.12 0 0 1-2.591 4.847zm0-6.232c.56 0 1.108.15 1.586.433a.271.271 0 0 0 .276-.466 3.662 3.662 0 0 0-5.149 4.759.271.271 0 0 0 .488-.239 3.12 3.12 0 0 1 2.8-4.487zM14.8 1.508a.27.27 0 0 0-.383 0l-12.6 12.6a.27.27 0 1 0 .383.383l12.6-12.6a.27.27 0 0 0 0-.383"/></svg>