<svg xmlns="http://www.w3.org/2000/svg" width="40" height="34" fill="none"><path fill="#9AA2AC" d="M36.8 7.333h-5.682L28.451.667H11.55L8.882 7.333H8V4H4v3.333h-.8a3.2 3.2 0 0 0-3.2 3.2V30.11a3.226 3.226 0 0 0 3.222 3.222h33.556A3.226 3.226 0 0 0 40 30.111V10.533c0-1.765-1.435-3.2-3.2-3.2m-31.467-2h1.334v2H5.333zm33.334 24.778A1.89 1.89 0 0 1 36.778 32H3.222a1.89 1.89 0 0 1-1.889-1.889V10.533c0-1.029.838-1.866 1.866-1.866h6.586L12.45 2h15.1l2.666 6.667h6.586c1.028 0 1.866.837 1.866 1.866V30.11z"/><path fill="#9AA2AC" d="M20 6.667c-6.617 0-12 5.383-12 12 0 6.616 5.383 12 12 12s12-5.384 12-12c0-6.617-5.383-12-12-12m0 22.666c-5.881 0-10.667-4.785-10.667-10.666S14.12 8 20 8s10.667 4.785 10.667 10.667S25.881 29.333 20 29.333"/><path fill="#9AA2AC" d="M20 10.667c-4.411 0-8 3.588-8 8 0 4.411 3.589 8 8 8s8-3.589 8-8c0-4.412-3.589-8-8-8m0 14.666a6.674 6.674 0 0 1-6.667-6.666A6.674 6.674 0 0 1 20 12a6.674 6.674 0 0 1 6.667 6.667A6.674 6.674 0 0 1 20 25.333M34.667 10A2.67 2.67 0 0 0 32 12.667a2.67 2.67 0 0 0 2.667 2.666 2.67 2.67 0 0 0 2.666-2.666A2.67 2.67 0 0 0 34.667 10m0 4a1.335 1.335 0 0 1-1.334-1.333 1.335 1.335 0 0 1 2.667 0c0 .735-.598 1.333-1.333 1.333"/></svg>