<svg xmlns="http://www.w3.org/2000/svg" width="5" height="7" fill="none" viewBox="0 0 5 7"><path fill="#48484C" d="M4.366 1.139c.141.063.295-.02.35-.18C4.77.795 4.698.616 4.56.553 3.664.15 2.646.411 1.97 1.202a2.95 2.95 0 0 0-.61 1.196h-.246c-.148 0-.27.142-.27.315s.122.315.27.315h.152q-.02.33.035.66h-.184c-.149 0-.27.143-.27.316s.121.315.27.315h.35c.118.346.289.61.505.862.463.539 1.086.828 1.72.828.292 0 .59-.06.87-.189.142-.063.21-.245.155-.406-.054-.163-.211-.242-.35-.18-.695.312-1.485.114-2.013-.5a2 2 0 0 1-.281-.419h2.143c.15 0 .271-.141.271-.314s-.122-.315-.27-.315H1.851q-.069-.33-.044-.661H4.36c.149 0 .27-.142.27-.315s-.121-.315-.27-.315H1.933a2.2 2.2 0 0 1 .422-.753c.525-.614 1.316-.818 2.011-.503"/></svg>