<svg width="23" height="21" fill="none" xmlns="http://www.w3.org/2000/svg"><path d="M21.143 2.267a6.313 6.313 0 00-4.5-1.863 6.33 6.33 0 00-4.506 1.868l-.63.629-.638-.639A6.345 6.345 0 006.359.39a6.322 6.322 0 00-4.496 1.862A6.304 6.304 0 000 6.758a6.32 6.32 0 001.873 4.5l9.157 9.157a.658.658 0 00.927.005l9.176-9.142A6.329 6.329 0 0023 6.772a6.3 6.3 0 00-1.857-4.505zm-.937 8.08l-8.713 8.679L2.8 10.332a5.02 5.02 0 01-1.482-3.574 5 5 0 011.477-3.57A5.013 5.013 0 016.36 1.711c1.35 0 2.623.527 3.579 1.482l1.102 1.102a.656.656 0 00.931 0l1.092-1.092a5.028 5.028 0 013.574-1.482c1.346 0 2.614.526 3.57 1.477a5.015 5.015 0 011.477 3.574 4.995 4.995 0 01-1.478 3.574z" fill="#2C3D52" fill-opacity=".5"/></svg>