<svg xmlns="http://www.w3.org/2000/svg" width="14" height="14" fill="none"><path fill="#2C3D52" d="M8.028 6.315a.686.686 0 1 0 .001 1.371.686.686 0 0 0-.001-1.37zm.453-2.075v1.234a1.6 1.6 0 0 1 .857.623l1.175-.381A2.8 2.8 0 0 0 8.48 4.239zm2.313 2.338-1.175.382V7c0 .363-.122.699-.328.967l.725.999a2.79 2.79 0 0 0 .778-2.388"/><path fill="#2C3D52" d="M8.028 1.028H2.51a.454.454 0 0 0 0 .907h2.358A6 6 0 0 0 3.537 3.07H.454a.454.454 0 0 0 0 .907H2.88A5.94 5.94 0 0 0 2.056 7a5.94 5.94 0 0 0 1.098 3.447H1.867a.454.454 0 1 0 0 .908h2.08q.424.399.92.71H.5a.454.454 0 0 0 0 .907h7.528A5.98 5.98 0 0 0 14 7a5.98 5.98 0 0 0-5.972-5.972m2.204 8.949-.026.02a3.7 3.7 0 0 1-2.178.708 3.7 3.7 0 0 1-2.178-.708l-.025-.02A3.7 3.7 0 0 1 4.323 7a3.71 3.71 0 0 1 3.705-3.705A3.71 3.71 0 0 1 11.733 7a3.7 3.7 0 0 1-1.502 2.977z"/><path fill="#2C3D52" d="m5.543 5.716 1.175.381a1.6 1.6 0 0 1 .856-.623V4.24a2.8 2.8 0 0 0-2.031 1.477zm3.015 2.785a1.6 1.6 0 0 1-1.06 0l-.726.999c.378.19.805.298 1.256.298A2.8 2.8 0 0 0 9.283 9.5zM6.436 7l.001-.04-1.175-.382a2.79 2.79 0 0 0 .777 2.387l.726-.998A1.6 1.6 0 0 1 6.436 7"/></svg>