<svg width="55" height="37" fill="none" xmlns="http://www.w3.org/2000/svg"><path d="M54.618 11.213c-.13-.38-.594-.677-.98-.677h-5.026c-.387 0-.85.296-.981.677a8.119 8.119 0 00-.288 1.017l-3.357-9.287a3.89 3.89 0 00-3.648-2.56H14.663a3.89 3.89 0 00-3.65 2.56l-3.356 9.288a8.16 8.16 0 00-.288-1.018c-.13-.38-.594-.677-.98-.677H1.362c-.387 0-.85.296-.981.677-.51 1.482-.509 2.33 0 3.812.13.38.594.677.98.677H6.39l.014-.002-.076.21a2.577 2.577 0 00-1.764 2.445v17.024c0 .684.554 1.238 1.238 1.238h6.234c.684 0 1.238-.554 1.238-1.238v-6.03h28.454v6.03c0 .684.555 1.238 1.239 1.238H49.2c.684 0 1.239-.554 1.239-1.238V18.355c0-1.14-.74-2.104-1.764-2.445l-.076-.21.014.002h5.026c.386 0 .85-.296.98-.677.51-1.482.509-2.33 0-3.812zM15.137 4.94H39.86l3.918 10.838H11.22L15.137 4.94zm.69 18.472H10.61a2.026 2.026 0 110-4.051h5.215a2.026 2.026 0 010 4.051zm28.561 0h-5.214a2.026 2.026 0 010-4.051h5.214a2.026 2.026 0 110 4.051z" fill="#DADCDF"/></svg>