<svg width="13" height="14" fill="none" xmlns="http://www.w3.org/2000/svg"><path d="M6.528 3.8A2.911 2.911 0 003.62 6.708a2.911 2.911 0 002.908 2.908 2.911 2.911 0 002.907-2.908A2.911 2.911 0 006.528 3.8zm0 5.406A2.5 2.5 0 014.03 6.708a2.5 2.5 0 012.498-2.497 2.5 2.5 0 012.497 2.497 2.5 2.5 0 01-2.497 2.498zM6.5 2.738a.208.208 0 00.208-.208V.208a.208.208 0 10-.416 0V2.53c0 .115.093.208.208.208zm0 7.83a.208.208 0 00-.208.208v2.322a.208.208 0 10.416 0v-2.322a.208.208 0 00-.208-.208zm6.292-4.238H10.47a.208.208 0 100 .416h2.322a.208.208 0 100-.416zm-10.054.208a.208.208 0 00-.208-.208H.208a.208.208 0 100 .416H2.53a.208.208 0 00.208-.208zM9.24 4.133c.053 0 .107-.02.147-.061L11.03 2.43a.208.208 0 10-.294-.294L9.093 3.778a.208.208 0 00.147.355zm.147 5.265a.208.208 0 10-.294.294l1.642 1.642a.207.207 0 00.294 0 .208.208 0 000-.294L9.387 9.398zM3.613 4.072a.207.207 0 00.294 0 .208.208 0 000-.294L2.265 2.136a.208.208 0 10-.294.294l1.642 1.642zm.303 5.34c-.004-.004-.005-.01-.01-.014a.208.208 0 00-.293 0l-.82.82-.838.799a.208.208 0 00-.007.294c.004.004.01.005.014.01.003.004.005.009.009.013a.207.207 0 00.294 0l.819-.82.839-.798a.208.208 0 00.007-.294c-.004-.005-.01-.006-.014-.01z" fill="#48484C"/></svg>