<svg width="187" height="37" fill="none" xmlns="http://www.w3.org/2000/svg"><path d="M55.444.699H56v35.694h-.563V.695l.007.004z" fill="#fff"/><g clip-path="url(#clip0)"><path fill-rule="evenodd" clip-rule="evenodd" d="M127.949 34.245a21.98 21.98 0 01-2.341-.602c-.005-.817.07-1.633.226-2.434 6.989 2.017 8.607.694 8.725-3.773v-1.072l-.903.823c-1.173 1.073-2.315 1.456-4.034 1.346-3.402-.22-5.285-2.705-5.29-6.986 0-2.56.561-4.186 1.984-5.707 1.898-2.03 5.146-2.421 7.42-.893l.823.556v-1.16l1.464.046 1.465.049.046 5.77c.077 9.007-.188 10.751-1.868 12.465-2.252 1.901-4.554 1.893-7.719 1.58l.002-.008zm4.426-8.857a7.93 7.93 0 001.443-1.029l.736-.68v-5.616l-.514-.44c-1.801-1.508-3.721-1.624-5.175-.309-.944.855-1.361 2.084-1.374 4.066-.015 2.39.5 3.602 1.789 4.207.854.4 2.097.324 3.105-.19l-.01-.009zm-42.32 1.91c-1.71-1.632-2.515-4.184-2.173-6.893.278-2.203.95-3.636 2.27-4.853 1.05-.968 2.032-1.372 3.584-1.48 3.777-.257 6.018 2.316 6.029 6.947v1.212c-2.885.077-6.176-.182-8.864.219.39 2.486 2.187 4.34 4.683 4.374 1.497 0 2.572-.38 4.019-.666l.043 2.29s-3.368.797-4.65.787a7.485 7.485 0 01-4.942-1.937zm6.704-7.884c0-1.423-.928-2.761-2.058-2.975-1.786-.334-3.152.7-3.602 2.725l-.157.71h5.817v-.46zm15.204 7.884c-1.708-1.632-2.514-4.184-2.171-6.893.278-2.203.949-3.636 2.269-4.853 1.047-.968 2.033-1.372 3.584-1.48 3.777-.257 6.019 2.316 6.029 6.947v1.212c-3.088-.04-6.026-.028-8.941-.051.175 2.933 2.058 4.801 4.76 4.65 1.515.028 2.83-.384 4.021-.664.258.159.196 2.014-.077 2.243-.381.314-3.247.841-4.528.834a7.48 7.48 0 01-4.946-1.945zm6.69-7.876c0-1.423-.929-2.761-2.058-2.975-1.786-.334-3.152.7-3.603 2.725l-.157.71h5.821v-.468l-.003.008zm35.078 9.597c-2.092-.772-3.121-3.031-2.437-5.324.276-.916 1.323-2.043 2.385-2.56 1.004-.491 3.031-.905 4.485-.913h.963v-1.194c-.057-3.185-2.573-2.98-5.059-2.076-.666.239-1.544.437-1.701.488-.02-.748-.098-1.26-.098-2.403l1.38-.437a12.488 12.488 0 013.061-.533c2.684-.152 4.133.435 4.982 2.02.347.654.373.952.45 5.403.085 4.704.085 4.714.492 5.146.241.258 1.129.515 1.402.515 0 .983.105.942-.013 1.863-.715.14-1.443.206-2.172.195a2.235 2.235 0 01-1.986-1.345l-.242-.463-.62.499c-1.436 1.147-3.826 1.654-5.264 1.119h-.008zm3.515-2.516c.444-.168.87-.378 1.273-.628l.602-.391v-3.435h-.717c-1.686 0-3.695.864-4.117 1.77a2.001 2.001 0 00.88 2.632c.684.337 1.235.347 2.099.044l-.02.008zm-80.389-6.294v-8.697H70V9.171h16.892v2.341h-6.857v17.394h-3.178v-8.697zm26.592-1.757V8h3.008v20.906h-3.008V18.452zm38.297 3.185v-7.295c.975.031 1.989 0 2.967.018 0 .603.025 1.202.059 1.802a6.017 6.017 0 014.047-2.025l1.122-.116v2.866c-1.881-.55-3.844.692-4.74 1.9-.344.478-.365.722-.445 5.269l-.085 4.765-2.925.098v-7.282zm24.919 0v-7.282h3.011v2.494c1.268-1.426 2.804-2.771 4.516-2.746 2.089-.08 2.946 1.271 3.877 2.769 2.614-2.944 7.379-3.788 8.854-.288.141 4.78.059 6.553-.016 12.314-.97.034-1.862 0-2.83.02.044-3.717 0-7.922-.1-11.413-.373-.731-1.063-1.307-2.254-.99-1.192.316-2.27 1.24-3.399 2.549 0 3.244.041 6.602.041 9.844h-2.992l-.096-11.4c-.602-.695-1.08-1.102-2.215-.832a5.432 5.432 0 00-3.386 2.591c0 3.214-.041 6.433-.041 9.641h-2.97v-7.276.005z" fill="#fff"/></g><g clip-path="url(#clip1)"><path d="M30.437 7.134c.515-.226 1.505-.23 1.563.496-.064.857-.283 1.692-.417 2.539a1059.668 1059.668 0 01-4.959 23.19c-.213.305-.478.634-.89.641-.505-.062-.9-.402-1.302-.668-2.482-1.678-4.983-3.33-7.459-5.014-1.302 1.193-2.633 2.339-3.906 3.558-.35.325-.721.828-1.27.71-.428-.229-.528-.745-.709-1.15-.974-2.754-1.815-5.572-2.685-8.37-2.15-.817-4.317-1.598-6.477-2.387-.677-.259-1.478-.46-1.854-1.138-.238-.433.158-.896.532-1.089.964-.5 2.018-.791 3.026-1.188 8.948-3.346 17.874-6.746 26.807-10.13zM25.23 12.33a6647.14 6647.14 0 01-15.354 9.878l-.047.081c.744 2.434 1.47 4.872 2.232 7.298.203-1.612.428-3.222.653-4.83 4.523-4.348 9.042-8.699 13.555-13.053-.364.18-.712.388-1.041.626h.002z" fill="#fff"/></g><defs><clipPath id="clip0"><path fill="#fff" transform="translate(70 8)" d="M0 0h117v26.409H0z"/></clipPath><clipPath id="clip1"><path fill="#fff" transform="translate(0 7)" d="M0 0h32v27H0z"/></clipPath></defs></svg>