<svg width="17" height="17" fill="none" xmlns="http://www.w3.org/2000/svg"><path d="M16.038 1.295a.283.283 0 10-.4.4 2.718 2.718 0 010 3.84.283.283 0 10.4.4 3.285 3.285 0 000-4.64z" fill="#2C3D52"/><path d="M14.845 1.94a.283.283 0 10-.4.4c.35.35.543.817.543 1.314 0 .497-.193.964-.544 1.315a.283.283 0 10.401.4c.458-.457.71-1.066.71-1.715a2.41 2.41 0 00-.71-1.715zM1.36 1.695a.283.283 0 10-.401-.4 3.285 3.285 0 000 4.64.283.283 0 00.4 0 .282.282 0 000-.4 2.718 2.718 0 010-3.84z" fill="#2C3D52"/><path d="M2.552 1.861a.283.283 0 00-.4 0 2.408 2.408 0 00-.71 1.715c0 .648.252 1.257.71 1.715a.283.283 0 00.4 0 .282.282 0 000-.4 1.846 1.846 0 01-.543-1.315c0-.497.193-.964.543-1.314a.282.282 0 000-.4zM8.5 15.583a.567.567 0 100-1.133.567.567 0 000 1.133z" fill="#2C3D52"/><path d="M12.068 0H4.93a1.25 1.25 0 00-1.248 1.248v14.504c0 .688.56 1.248 1.248 1.248h7.137a1.25 1.25 0 001.248-1.248V1.248A1.25 1.25 0 0012.068 0zM9.349.85h.284a.283.283 0 110 .567h-.284a.283.283 0 110-.567zm-1.983 0h1.133a.283.283 0 110 .567H7.366a.283.283 0 110-.567zm1.133 15.3a1.134 1.134 0 010-2.267 1.134 1.134 0 010 2.267zm4.25-3.117h-8.5V2.267h8.5v10.766z" fill="#2C3D52"/></svg>