<svg xmlns="http://www.w3.org/2000/svg" width="14" height="7" fill="none"><path fill="#48484C" d="M13.91 2.656A2.555 2.555 0 0 0 11.358.104c-.988 0-1.88.577-2.299 1.445A3.45 3.45 0 0 0 6.263.107a3.44 3.44 0 0 0-3.32 2.516A2.247 2.247 0 0 0 0 4.756 2.247 2.247 0 0 0 2.245 7h7.497a1.88 1.88 0 0 0 1.876-1.806 2.556 2.556 0 0 0 2.293-2.538zM9.741 6.473H2.244A1.72 1.72 0 0 1 .527 4.756 1.72 1.72 0 0 1 3.012 3.22a.263.263 0 0 0 .378-.188A2.916 2.916 0 0 1 6.263.635c1.599 0 2.908 1.3 2.918 2.9a.263.263 0 0 0 .312.257 1.353 1.353 0 0 1 1.6 1.329c0 .745-.606 1.352-1.352 1.352m1.822-1.803a1.88 1.88 0 0 0-1.822-1.428h-.046a3.4 3.4 0 0 0-.298-1.11l.013-.027A2.03 2.03 0 0 1 11.358.63c1.117 0 2.025.908 2.025 2.025a2.027 2.027 0 0 1-1.82 2.014z"/></svg>