<svg width="24" height="19" fill="none" xmlns="http://www.w3.org/2000/svg"><path d="M22.918 8.152H.965C.432 8.152 0 8.634 0 9.227c0 .594.432 1.075.965 1.075h21.953c.533 0 .964-.481.964-1.075 0-.593-.431-1.075-.964-1.075zm0-8.152H.965C.432 0 0 .481 0 1.075 0 1.668.432 2.15.965 2.15h21.953c.533 0 .964-.482.964-1.075C23.882.48 23.451 0 22.918 0zm0 16.305H.965c-.533 0-.965.481-.965 1.075 0 .593.432 1.074.965 1.074h21.953c.533 0 .964-.48.964-1.074 0-.594-.431-1.075-.964-1.075z" fill="#2C3D52"/></svg>