<svg width="46" height="46" fill="none" xmlns="http://www.w3.org/2000/svg"><path d="M42.733 21.136h-5.196a2.455 2.455 0 00-2.454 2.458v.267c0 1.36 1.099 2.46 2.456 2.46h5.194a2.462 2.462 0 002.46-2.46l-.002-.27a2.454 2.454 0 00-2.458-2.455z" fill="#DADCDF"/><path d="M42.736 15.002h-1.083V3.108A3.117 3.117 0 0038.545 0H18.037a3.117 3.117 0 00-3.108 3.108v8.534a1918.333 1918.333 0 00-8.412 4.787c-2.316.953-5.71 4.028-5.71 11.291a17.528 17.528 0 00.166 2.322c.06.424.135.83.224 1.217.032.137.057.281.092.413.12.447.259.865.415 1.264.079.197.164.377.25.563.092.194.185.386.284.565.115.216.23.425.356.622.03.046.063.088.094.135 2.99 4.52 8.508 4.541 8.508 4.541h3.733v3.532a3.116 3.116 0 003.108 3.105h20.507a3.117 3.117 0 003.109-3.105v-4.308h.474v-.002h.604c1.36 0 2.462-1.1 2.46-2.46l.002-.267a2.458 2.458 0 00-2.46-2.454h-5.197a2.453 2.453 0 00-2.454 2.456v.272a2.458 2.458 0 002.456 2.457h1.952v1.664H17.091V17.937c1.125-.713 2.167-1.4 2.761-1.86 3.01-2.328 5.867-4.182 6.254-5.863.503-2.182-1.171-4.02-4.076-2.51-.915.475-2.794 1.516-4.939 2.721v-5.5l22.4.003v10.073h-1.342v.002h-.61a2.46 2.46 0 00-2.46 2.46v.267a2.456 2.456 0 002.457 2.456h5.199a2.456 2.456 0 002.456-2.456v-.274a2.453 2.453 0 00-2.455-2.454zm-14.448 26.34a1.553 1.553 0 110 3.11 1.551 1.551 0 01-1.551-1.555 1.556 1.556 0 011.551-1.554zm3.284-38.35H25.01a.377.377 0 110-.751h6.562a.375.375 0 010 .752z" fill="#DADCDF"/></svg>