<svg xmlns="http://www.w3.org/2000/svg" width="20" height="20" fill="none" viewBox="0 0 20 20"><g clip-path="url(#a)"><path fill="#959EA8" d="M10 0C4.486 0 0 4.486 0 10s4.486 10 10 10 10-4.486 10-10S15.514 0 10 0m0 18.75c-4.825 0-8.75-3.925-8.75-8.75S5.175 1.25 10 1.25s8.75 3.925 8.75 8.75-3.925 8.75-8.75 8.75m5.53-5.037a.625.625 0 1 1-.966.794 5.702 5.702 0 0 0-8.815 0 .625.625 0 1 1-.966-.794 6.95 6.95 0 0 1 10.746 0m.274-8.815a.625.625 0 0 1-.229.854l-1.14.658a1.251 1.251 0 1 1-2.147 1.24l-.027.016a.625.625 0 1 1-.625-1.083L14.95 4.67a.625.625 0 0 1 .854.228M5.565 6.41l-1.14-.658A.625.625 0 1 1 5.05 4.67l3.314 1.913a.625.625 0 0 1-.625 1.083l-.027-.016a1.251 1.251 0 1 1-2.147-1.24"/></g><defs><clipPath id="a"><path fill="#fff" d="M0 0h20v20H0z"/></clipPath></defs></svg>