<svg width="40" height="34" fill="none" xmlns="http://www.w3.org/2000/svg"><path d="M36.8 7.333h-5.682L28.451.667H11.55L8.882 7.333H8V4H4v3.333h-.8a3.202 3.202 0 00-3.2 3.2V30.11a3.226 3.226 0 003.222 3.222h33.556A3.226 3.226 0 0040 30.111V10.533c0-1.765-1.435-3.2-3.2-3.2zm-31.467-2h1.334v2H5.333v-2zm33.334 24.778A1.89 1.89 0 0136.778 32H3.222a1.89 1.89 0 01-1.889-1.889V10.533c0-1.029.838-1.866 1.866-1.866h6.586L12.45 2h15.1l2.666 6.667h6.586c1.028 0 1.866.837 1.866 1.866V30.11z" fill="#9AA2AC"/><path d="M20 6.667c-6.617 0-12 5.383-12 12 0 6.616 5.383 12 12 12s12-5.384 12-12c0-6.617-5.383-12-12-12zm0 22.666c-5.881 0-10.667-4.785-10.667-10.666C9.333 12.785 14.12 8 20 8s10.667 4.785 10.667 10.667c0 5.881-4.786 10.666-10.667 10.666z" fill="#9AA2AC"/><path d="M20 10.667c-4.411 0-8 3.588-8 8 0 4.411 3.589 8 8 8s8-3.589 8-8c0-4.412-3.589-8-8-8zm0 14.666a6.674 6.674 0 01-6.667-6.666A6.674 6.674 0 0120 12a6.674 6.674 0 016.667 6.667A6.674 6.674 0 0120 25.333zM34.667 10A2.67 2.67 0 0032 12.667a2.67 2.67 0 002.667 2.666 2.67 2.67 0 002.666-2.666A2.67 2.67 0 0034.667 10zm0 4a1.335 1.335 0 01-1.334-1.333 1.335 1.335 0 012.667 0c0 .735-.598 1.333-1.333 1.333z" fill="#9AA2AC"/></svg>