<svg width="12" height="12" fill="none" xmlns="http://www.w3.org/2000/svg"><path d="M11.873 4.199L8.444.77a.412.412 0 00-.301-.127.412.412 0 00-.301.127.412.412 0 00-.128.301v1.715h-1.5c-3.183 0-5.136.9-5.86 2.698C.119 6.083 0 6.826 0 7.714c0 .741.283 1.748.85 3.02a16.013 16.013 0 00.161.362.758.758 0 00.087.147c.054.076.116.114.188.114.067 0 .12-.022.157-.067a.25.25 0 00.057-.167c0-.04-.006-.1-.017-.178a1.386 1.386 0 01-.017-.157 11.31 11.31 0 01-.033-.824c0-.45.04-.854.117-1.212a3.64 3.64 0 01.325-.927 2.33 2.33 0 01.536-.676 3.14 3.14 0 01.706-.466c.252-.12.55-.215.89-.284a8.21 8.21 0 011.032-.144c.346-.027.738-.04 1.175-.04h1.5v1.714c0 .116.043.216.127.301a.412.412 0 00.302.127.413.413 0 00.301-.127l3.429-3.429a.412.412 0 00.127-.3.413.413 0 00-.127-.302z" fill="#2C3D52"/></svg>