<svg width="14" height="7" fill="none" xmlns="http://www.w3.org/2000/svg"><path d="M13.91 2.656A2.555 2.555 0 0011.358.104c-.988 0-1.88.577-2.299 1.445A3.445 3.445 0 006.263.107a3.443 3.443 0 00-3.32 2.516A2.247 2.247 0 000 4.756 2.247 2.247 0 002.245 7h7.497a1.88 1.88 0 001.876-1.806 2.556 2.556 0 002.293-2.538zM9.741 6.473H2.244A1.72 1.72 0 01.527 4.756 1.719 1.719 0 013.012 3.22a.263.263 0 00.378-.188A2.916 2.916 0 016.263.635c1.599 0 2.908 1.3 2.918 2.9a.263.263 0 00.312.257 1.353 1.353 0 011.6 1.329c0 .745-.606 1.352-1.352 1.352zm1.822-1.803a1.88 1.88 0 00-1.822-1.428h-.046a3.407 3.407 0 00-.298-1.11c.004-.01.01-.017.013-.027A2.032 2.032 0 0111.358.63c1.117 0 2.025.908 2.025 2.025a2.027 2.027 0 01-1.82 2.014z" fill="#48484C"/></svg>