<svg width="13" height="13" fill="none" xmlns="http://www.w3.org/2000/svg"><path d="M5.357 6.88h2.286v.763H5.357V6.88z" fill="#C3D2E4"/><path d="M10.547 7.643H8.404v.38a.38.38 0 01-.38.381H4.976a.38.38 0 01-.381-.38v-.381H2.453c-.492 0-.928-.314-1.084-.781L0 2.752v8.318c0 .63.513 1.143 1.143 1.143h10.714c.63 0 1.143-.513 1.143-1.143V2.753l-1.37 4.109a1.141 1.141 0 01-1.083.78z" fill="#C3D2E4"/><path d="M8.023.787H4.977c-.63 0-1.143.513-1.143 1.143v.38H.655l1.437 4.31a.38.38 0 00.361.26h2.143V6.5c0-.21.17-.38.38-.38h3.047c.21 0 .381.17.381.38v.38h2.143a.38.38 0 00.361-.26l1.437-4.31H9.166v-.38c0-.63-.513-1.143-1.143-1.143zM4.596 2.311V1.93c0-.21.17-.381.38-.381h3.047c.21 0 .381.17.381.38v.382H4.596z" fill="#C3D2E4"/></svg>