<svg width="11" height="12" fill="none" xmlns="http://www.w3.org/2000/svg"><path d="M9.04 2.928c-.033 0-.065 0-.098.003A3.169 3.169 0 005.79 0a3.157 3.157 0 00-3.06 2.367A2.04 2.04 0 000 4.283 2.04 2.04 0 002.037 6.32H9.04c.935 0 1.696-.76 1.696-1.696 0-.935-.761-1.696-1.696-1.696zm0 3.017H2.037A1.664 1.664 0 01.375 4.283a1.664 1.664 0 012.406-1.487.187.187 0 00.269-.134A2.782 2.782 0 015.79.375a2.792 2.792 0 012.785 2.767.187.187 0 00.222.183 1.323 1.323 0 011.564 1.299c0 .729-.593 1.321-1.321 1.321zM6.115 8.617a.188.188 0 00-.163-.095H5.95l-.613.006.233-1.696a.188.188 0 00-.341-.13l-1.78 2.643a.188.188 0 00.159.293l.648-.011-.335 2.042a.188.188 0 00.344.128l1.846-2.99a.188.188 0 00.004-.19zm-1.67 2.176l.218-1.327a.187.187 0 00-.185-.218h-.004l-.513.009 1.128-1.675-.153 1.11a.188.188 0 00.045.15.18.18 0 00.143.063l.49-.005-1.17 1.893zM2.35 8.93l.38-1.056a.187.187 0 10-.353-.128l-.38 1.056a.187.187 0 10.352.127zm5.413-1.296a.187.187 0 00-.24.112l-.38 1.056a.187.187 0 10.352.127l.38-1.055a.187.187 0 00-.112-.24zM2.77 10.432a.187.187 0 00-.24.113l-.38 1.056a.187.187 0 10.352.127l.38-1.056a.187.187 0 00-.112-.24zm3.865.148a.187.187 0 00-.24.113l-.38 1.056a.187.187 0 10.353.127l.38-1.056a.187.187 0 00-.113-.24z" fill="#48484C"/></svg>