<svg width="18" height="18" fill="none" xmlns="http://www.w3.org/2000/svg"><path d="M17.824 15.224l-3.583-3.582 2.556-1.476a.602.602 0 00-.078-1.08L5.322 4.54a.602.602 0 00-.782.782l4.545 11.397a.602.602 0 001.08.078l1.477-2.556 3.582 3.583a.602.602 0 00.852 0l1.748-1.748a.602.602 0 000-.852zM2.642 1.791a.602.602 0 00-.851.851L3.129 3.98a.6.6 0 00.851 0 .602.602 0 000-.851L2.642 1.79zm.454 4.161a.602.602 0 00-.602-.602H.602a.602.602 0 100 1.204h1.892c.332 0 .602-.27.602-.602zM2.852 7.81L1.514 9.148a.602.602 0 00.851.851l1.338-1.337a.602.602 0 10-.851-.852zm3.101-4.714c.332 0 .602-.27.602-.602V.602a.602.602 0 00-1.204 0v1.892c0 .332.27.602.602.602zm2.283.783a.6.6 0 00.425-.176L10 2.365a.602.602 0 10-.851-.851L7.81 2.85a.602.602 0 00.426 1.028z" fill="#2C3D52"/></svg>