<svg width="17" height="17" fill="none" xmlns="http://www.w3.org/2000/svg"><g clip-path="url(#clip0)" fill="#2C3D52"><path d="M14.663 6.191c-3.414-3.414-8.969-3.414-12.383 0L0 8.471l2.337 2.337a8.729 8.729 0 006.191 2.561 8.728 8.728 0 006.192-2.56L17 8.528 14.663 6.19zm-.35 4.211c-3.19 3.19-8.38 3.19-11.57 0l-1.93-1.93 1.873-1.875c3.19-3.19 8.38-3.19 11.571 0l1.93 1.931-1.873 1.874z"/><path d="M8.204 6.194c-1.108 0-2.01.902-2.01 2.01a.287.287 0 00.575 0c0-.792.644-1.436 1.435-1.436a.287.287 0 000-.574z"/><path d="M8.492 4.758a3.737 3.737 0 00-3.733 3.733 3.737 3.737 0 003.733 3.734 3.737 3.737 0 003.733-3.734 3.737 3.737 0 00-3.733-3.733zm0 6.892a3.163 3.163 0 01-3.159-3.159 3.163 3.163 0 013.159-3.158A3.163 3.163 0 0111.65 8.49a3.162 3.162 0 01-3.16 3.16z"/></g><defs><clipPath id="clip0"><path fill="#fff" d="M0 0h17v17H0z"/></clipPath></defs></svg>