<svg width="32" height="27" fill="none" xmlns="http://www.w3.org/2000/svg"><path d="M30.437.134c.515-.226 1.505-.23 1.563.496-.064.857-.283 1.692-.417 2.539a1059.656 1059.656 0 01-4.959 23.19c-.213.305-.478.634-.89.641-.505-.062-.9-.402-1.302-.668-2.482-1.678-4.983-3.33-7.459-5.014-1.302 1.193-2.633 2.339-3.906 3.558-.35.325-.721.828-1.27.71-.428-.229-.528-.745-.709-1.15-.974-2.754-1.815-5.572-2.685-8.37-2.15-.817-4.317-1.597-6.477-2.387-.677-.259-1.478-.46-1.854-1.138-.238-.433.158-.896.532-1.089.964-.5 2.018-.791 3.026-1.188C12.578 6.918 21.504 3.518 30.437.134zM25.23 5.33c-5.115 3.3-10.233 6.593-15.354 9.878l-.047.081c.744 2.435 1.47 4.873 2.232 7.298.203-1.612.428-3.222.653-4.83 4.523-4.348 9.042-8.699 13.555-13.053a7.3 7.3 0 00-1.041.626h.002z" fill="#2C3D52"/></svg>