<svg width="39" height="21" fill="none" xmlns="http://www.w3.org/2000/svg"><path d="M38.152 19.053a2.328 2.328 0 00-.13-.23c-.666-1.1-1.938-2.45-3.815-4.052l-.04-.037-.02-.018-.02-.018h-.02c-.851-.746-1.39-1.248-1.617-1.505-.413-.489-.506-.984-.28-1.485.16-.38.76-1.18 1.798-2.402.546-.648.978-1.168 1.297-1.559 2.304-2.812 3.302-4.609 2.996-5.392l-.119-.182c-.08-.11-.286-.211-.619-.303s-.759-.107-1.278-.046l-5.751.037c-.093-.03-.226-.028-.4.009l-.26.055-.1.046-.079.055a.86.86 0 00-.22.193c-.08.091-.146.198-.199.32a28.946 28.946 0 01-2.137 4.127 38.869 38.869 0 01-1.358 1.971c-.413.556-.759.966-1.038 1.229a7.03 7.03 0 01-.76.632c-.226.16-.399.227-.518.202a23 23 0 01-.34-.073 1.266 1.266 0 01-.45-.45 1.891 1.891 0 01-.229-.715 7.259 7.259 0 01-.07-.743c-.006-.207-.003-.501.01-.88.014-.38.02-.636.02-.77 0-.465.01-.97.03-1.513.02-.544.036-.975.05-1.293.014-.318.02-.654.02-1.009a3.93 3.93 0 00-.07-.834 2.695 2.695 0 00-.21-.587 1.017 1.017 0 00-.409-.44 2.428 2.428 0 00-.669-.248C20.443 1 19.544.92 18.452.907c-2.476-.025-4.067.122-4.773.44-.28.135-.532.318-.758.55-.24.27-.273.416-.1.44.799.11 1.364.373 1.697.789l.12.22c.093.159.186.44.28.844.093.403.153.85.18 1.338.066.893.066 1.657 0 2.292-.067.636-.13 1.131-.19 1.486-.06.354-.15.642-.27.862-.12.22-.2.354-.24.403a.33.33 0 01-.1.092c-.172.06-.353.092-.539.092-.186 0-.412-.086-.679-.257a4.665 4.665 0 01-.828-.706c-.287-.3-.61-.719-.97-1.257a21.413 21.413 0 01-1.117-1.907l-.32-.532c-.2-.342-.472-.84-.818-1.494a27.686 27.686 0 01-.919-1.898 1.226 1.226 0 00-.48-.587l-.1-.055a1.409 1.409 0 00-.319-.156 2.267 2.267 0 00-.459-.12l-5.472.037c-.559 0-.938.117-1.138.349l-.08.11c-.04.06-.06.159-.06.293 0 .135.04.3.12.495a58.507 58.507 0 002.606 4.988c.938 1.602 1.754 2.892 2.446 3.87a45.883 45.883 0 002.117 2.769c.719.868 1.195 1.424 1.428 1.669.233.244.416.428.549.55l.5.44c.319.293.788.645 1.407 1.054.62.41 1.305.813 2.057 1.211.752.397 1.627.721 2.626.972.999.25 1.97.351 2.916.302h2.296c.466-.037.819-.171 1.059-.403l.08-.092a1.16 1.16 0 00.149-.339 1.71 1.71 0 00.07-.504c-.014-.526.03-1 .13-1.421.099-.422.212-.74.34-.954a2.36 2.36 0 01.428-.54c.16-.147.274-.236.34-.267.067-.03.12-.051.16-.064.32-.098.695-.003 1.128.285.433.287.839.642 1.219 1.063.379.422.835.896 1.367 1.422.533.525.999.916 1.398 1.173l.4.22a5.11 5.11 0 001.038.404c.426.122.798.153 1.118.091l5.112-.073c.506 0 .9-.077 1.179-.23.28-.152.445-.32.499-.503.053-.184.056-.392.01-.624a2.158 2.158 0 00-.14-.486z" fill="#2C3D52"/></svg>