<svg width="30" height="30" fill="none" xmlns="http://www.w3.org/2000/svg"><path d="M19.362 7.981H10.42a2.591 2.591 0 00-2.588 2.589v8.941A2.591 2.591 0 0010.42 22.1h8.942a2.592 2.592 0 002.588-2.589V10.57a2.591 2.591 0 00-2.588-2.589zM14.89 19.688a4.653 4.653 0 01-4.648-4.648 4.653 4.653 0 014.648-4.647 4.653 4.653 0 014.648 4.647 4.653 4.653 0 01-4.648 4.648zm4.797-8.334a1.1 1.1 0 01-1.1-1.1 1.101 1.101 0 012.2 0c0 .607-.494 1.1-1.1 1.1z" fill="#6A453B"/><path d="M14.89 12.357a2.687 2.687 0 00-2.683 2.683 2.688 2.688 0 002.684 2.684 2.687 2.687 0 002.684-2.684 2.687 2.687 0 00-2.684-2.683z" fill="#6A453B"/><path d="M14.89 0c-8.283 0-15 6.716-15 15 0 8.284 6.717 15 15 15 8.285 0 15-6.716 15-15 0-8.284-6.715-15-15-15zm9.024 19.511a4.557 4.557 0 01-4.553 4.552H10.42a4.557 4.557 0 01-4.552-4.552V10.57a4.557 4.557 0 014.552-4.552h8.941a4.557 4.557 0 014.553 4.552v8.941z" fill="#6A453B"/></svg>