<svg width="5" height="7" viewBox="0 0 5 7" fill="none" xmlns="http://www.w3.org/2000/svg">
<path d="M4.36624 1.13865C4.50699 1.20162 4.66128 1.11976 4.71541 0.959192C4.76955 0.795473 4.69917 0.616012 4.56112 0.553043C3.66518 0.150043 2.64744 0.411363 1.97074 1.20162C1.68112 1.5385 1.4727 1.95725 1.36172 2.39803H1.1154C0.966531 2.39803 0.844727 2.53971 0.844727 2.71287C0.844727 2.88604 0.966531 3.02772 1.1154 3.02772H1.26698C1.25345 3.24811 1.26698 3.4685 1.30217 3.68889H1.11811C0.969238 3.68889 0.847434 3.83057 0.847434 4.00373C0.847434 4.1769 0.969238 4.31857 1.11811 4.31857H1.46728C1.58638 4.6649 1.75691 4.92937 1.97345 5.18125C2.43631 5.71963 3.05887 6.00929 3.69225 6.00929C3.98458 6.00929 4.28233 5.94947 4.56383 5.82038C4.70458 5.75741 4.77225 5.5748 4.71812 5.41423C4.66398 5.25051 4.50699 5.1718 4.36894 5.23477C3.6733 5.54647 2.88293 5.34811 2.35511 4.73417C2.24683 4.60823 2.1521 4.47285 2.0736 4.31543H4.21737C4.36624 4.31543 4.48804 4.17375 4.48804 4.00058C4.48804 3.82742 4.36624 3.68574 4.21737 3.68574H1.85165C1.80563 3.46535 1.7921 3.24496 1.80834 3.02457H4.36082C4.5097 3.02457 4.6315 2.88289 4.6315 2.70972C4.6315 2.53656 4.5097 2.39488 4.36082 2.39488H1.93285C2.02759 2.11152 2.16834 1.8565 2.35511 1.6424C2.88022 1.02846 3.6706 0.823809 4.36624 1.13865Z" fill="#48484C"/>
</svg>
