<svg width="16" height="16" fill="none" xmlns="http://www.w3.org/2000/svg"><g clip-path="url(#clip0)" fill="#90A9ED"><path d="M13.8 5.827c-3.213-3.213-8.44-3.213-11.654 0L0 7.973l2.2 2.2a8.215 8.215 0 005.827 2.41c2.11 0 4.22-.804 5.827-2.41L16 8.025l-2.2-2.2zm-.328 3.963c-3.003 3.002-7.888 3.002-10.89 0L.764 7.973l1.764-1.764c3.003-3.002 7.888-3.002 10.89 0l1.818 1.817-1.764 1.764z"/><path d="M7.722 5.83A1.894 1.894 0 005.83 7.72a.27.27 0 00.54 0c0-.745.607-1.351 1.352-1.351a.27.27 0 000-.54z"/><path d="M7.992 4.479A3.518 3.518 0 004.48 7.992a3.518 3.518 0 003.513 3.513 3.517 3.517 0 003.514-3.513 3.517 3.517 0 00-3.514-3.513zm0 6.486A2.976 2.976 0 015.02 7.992a2.976 2.976 0 012.973-2.973 2.976 2.976 0 012.973 2.973 2.976 2.976 0 01-2.973 2.973z"/></g><defs><clipPath id="clip0"><path fill="#fff" d="M0 0h16v16H0z"/></clipPath></defs></svg>