<svg width="27" height="25" fill="none" xmlns="http://www.w3.org/2000/svg"><path d="M19.377 1.032C17.332.205 14.367-.06 13.09.012l2.514 5.768c1.986 2.49 6.253 7.438 7.433 7.309 1.18-.13 2.059-.878 2.35-1.236.693-.896 1.421-3.404-.109-5.876-2.018-3.26-4.044-4.192-5.902-4.945z" fill="#909090"/><circle cx="12" cy="12" r="11.625" fill="#fff" stroke="#2C3D52" stroke-width=".75"/><mask id="a" maskUnits="userSpaceOnUse" x="0" y="0" width="24" height="25"><circle cx="11.996" cy="12.005" r="11.496" fill="#C4C4C4" stroke="#2C3D52"/></mask><g mask="url(#a)"><path d="M4.269 8.764c-1.34 2.377-3.44 3.62-4.323 3.944l-2.54-3.944L5.998-.693h8.106v.919c-1.28.09-4.3.942-6.485 3.188-1.945 2-1.675 2.378-3.35 5.35z" fill="#2C3D52" stroke="#2C3D52"/></g></svg>